<svg xmlns="http://www.w3.org/2000/svg" xmlns:xlink="http://www.w3.org/1999/xlink" width="1366" zoomAndPan="magnify" viewBox="0 0 1024.5 576" height="768" preserveAspectRatio="xMidYMid meet" version="1.0"><defs><clipPath id="c5865fc96d"><path d="M 484 81.851562 L 506 81.851562 L 506 99 L 484 99 Z M 484 81.851562 " clip-rule="nonzero"/></clipPath></defs><path fill="#091018" d="M 461.828125 305.246094 C 460.984375 290.582031 467.105469 273.847656 467.105469 273.847656 L 531.488281 273.847656 C 531.488281 273.847656 535.777344 285.566406 536.6875 297.984375 C 549.863281 308.246094 581.292969 333.445312 586.050781 343.921875 C 587.792969 347.761719 586.417969 351.433594 583.105469 353.910156 C 579.996094 357.890625 564.519531 358.484375 553.210938 358.402344 C 554.449219 352.703125 545.605469 347.367188 541.027344 345.023438 C 541.777344 344.839844 542.507812 344.660156 543.230469 344.484375 C 527.835938 335.507812 507.253906 323.09375 503.480469 319.695312 L 503.007812 319.890625 L 495.777344 319.890625 C 496.476562 348.566406 496.617188 397.683594 496.628906 429.898438 L 479.265625 429.898438 C 476.289062 408.070312 480.359375 402.019531 475.269531 384.09375 C 464.054688 344.617188 462.023438 317.878906 461.828125 305.246094 " fill-opacity="1" fill-rule="nonzero"/><path stroke-linecap="round" transform="matrix(-0.023401, 0, 0, -0.0233864, 760.670552, 535.553493)" fill="none" stroke-linejoin="round" d="M 12770.512944 9847.927087 C 12806.569138 10474.961298 12544.99481 11190.521915 12544.99481 11190.521915 L 9793.706957 11190.521915 C 9793.706957 11190.521915 9610.421308 10689.429046 9571.527359 10158.437635 C 9008.483194 9719.647312 7665.389998 8642.130612 7462.073131 8194.153586 C 7387.623769 8029.962156 7446.382009 7872.953057 7587.935953 7767.05543 C 7720.809702 7596.850886 8382.173764 7571.46218 8865.426909 7574.96983 C 8812.511107 7818.667996 9190.433428 8046.832283 9386.071662 8147.050857 C 9354.021712 8154.901311 9322.806397 8162.584735 9291.924935 8170.101129 C 9949.783534 8553.938267 10829.320951 9084.762646 10990.572259 9230.079579 L 11010.770404 9221.728031 L 11319.751949 9221.728031 C 11289.872048 7995.553779 11283.862682 5895.473563 11283.361902 4517.802233 L 12025.351618 4517.802233 C 12152.549855 5451.171218 11978.612109 5709.90217 12196.117756 6476.407229 C 12675.364657 8164.422076 12762.166603 9307.748973 12770.512944 9847.927087 Z M 12770.512944 9847.927087 " stroke="#24265d" stroke-width="49.889999" stroke-opacity="1" stroke-miterlimit="10"/><path fill="#6aa6d1" d="M 502.960938 95.371094 C 502.960938 95.371094 504.714844 94.394531 504.878906 92.109375 C 505.039062 89.828125 501.191406 82.648438 494.464844 82.320312 C 487.742188 81.996094 481.925781 94 487.546875 97.527344 L 502.960938 95.371094 " fill-opacity="1" fill-rule="nonzero"/><g clip-path="url(#c5865fc96d)"><path stroke-linecap="round" transform="matrix(-0.0278425, 0, 0, -0.0278251, 760.670552, 535.553493)" fill="none" stroke-linejoin="round" d="M 9255.846707 15819.32387 C 9255.846707 15819.32387 9192.852808 15854.420305 9186.960283 15936.545961 C 9181.208057 16018.671617 9319.401799 16276.560217 9560.995327 16288.352618 C 9802.448557 16300.004635 10011.352601 15868.599264 9809.463468 15741.971329 Z M 9255.846707 15819.32387 " stroke="#24265d" stroke-width="41.931" stroke-opacity="1" stroke-miterlimit="10"/></g><path fill="#24265d" d="M 499.539062 94.425781 C 499.554688 94.375 501.035156 89.507812 498.65625 86.183594 C 497.25 84.214844 494.78125 83.167969 491.320312 83.046875 C 491.574219 82.917969 491.839844 82.800781 492.101562 82.707031 C 495.285156 82.953125 497.605469 84.039062 498.972656 85.957031 C 501.46875 89.441406 499.980469 94.335938 499.917969 94.539062 L 499.539062 94.425781 " fill-opacity="1" fill-rule="nonzero"/><path fill="#24265d" d="M 487.230469 86.933594 C 488.003906 86.621094 488.8125 86.550781 489.664062 86.738281 C 493.957031 87.695312 497.746094 94.71875 497.902344 95.015625 L 497.554688 95.203125 C 497.515625 95.132812 493.695312 88.035156 489.578125 87.121094 C 488.617188 86.90625 487.707031 87.054688 486.859375 87.554688 C 486.980469 87.34375 487.101562 87.140625 487.230469 86.933594 " fill-opacity="1" fill-rule="nonzero"/><path fill="#24265d" d="M 485.914062 89.605469 L 486.109375 89.636719 C 485.425781 94.054688 489.746094 96.550781 489.789062 96.574219 L 489.597656 96.914062 C 489.554688 96.890625 485.566406 94.59375 485.644531 90.457031 C 485.722656 90.171875 485.816406 89.890625 485.914062 89.605469 " fill-opacity="1" fill-rule="nonzero"/><path fill="#f39477" d="M 479.253906 487.425781 C 480.859375 486.820312 484.449219 483.960938 484.449219 483.960938 C 485.355469 482.941406 487.824219 480.484375 488.460938 479.648438 C 488.460938 479.648438 482.066406 442.75 479.503906 426.765625 L 496.628906 426.765625 C 495.824219 441.101562 495.183594 478.054688 496.988281 485.121094 C 496.988281 485.128906 498.492188 488.945312 497.289062 489.941406 C 496.085938 490.9375 487.546875 491.550781 487.546875 491.550781 C 484.417969 493.558594 476.28125 491.265625 476.28125 491.265625 C 474.714844 489.890625 477.652344 488.03125 479.253906 487.425781 " fill-opacity="1" fill-rule="nonzero"/><path stroke-linecap="round" transform="matrix(-0.023401, 0, 0, -0.0233864, 760.670552, 535.553493)" fill="none" stroke-linejoin="round" d="M 12025.852399 2057.937336 C 11957.245476 2083.827135 11803.839728 2206.093795 11803.839728 2206.093795 C 11765.112705 2249.688874 11659.614955 2354.751346 11632.405883 2390.495971 C 11632.405883 2390.495971 11905.665088 3968.270386 12015.169082 4651.76106 L 11283.361902 4651.76106 C 11317.748827 4038.75745 11345.124825 2458.644601 11268.004634 2156.485601 C 11268.004634 2156.151539 11203.737809 1992.962294 11255.151269 1950.3694 C 11306.56473 1907.776506 11671.466759 1881.552646 11671.466759 1881.552646 C 11805.175142 1795.698735 12152.883709 1893.745906 12152.883709 1893.745906 C 12219.821364 1952.540803 12094.292395 2032.047538 12025.852399 2057.937336 Z M 12025.852399 2057.937336 " stroke="#24265d" stroke-width="49.889999" stroke-opacity="1" stroke-miterlimit="10"/><path fill="#f39477" d="M 472.09375 222.023438 C 469.550781 210.273438 461.972656 169.5625 463.875 167.507812 C 465.777344 165.453125 472.589844 163.878906 472.589844 163.878906 C 480.066406 162.3125 487.503906 158.964844 487.503906 158.964844 C 493.457031 154.023438 494.382812 124.628906 494.382812 124.628906 C 494.382812 124.628906 496.523438 126.160156 499.1875 128.203125 C 501.847656 126.160156 503.988281 124.628906 503.988281 124.628906 C 503.988281 124.628906 504.917969 154.023438 510.871094 158.964844 C 510.871094 158.964844 518.304688 162.3125 525.785156 163.878906 C 525.785156 163.878906 532.601562 165.453125 534.5 167.507812 C 536.402344 169.5625 528.824219 210.273438 526.277344 222.023438 C 521.867188 242.375 528.917969 268.363281 531.269531 273.847656 L 467.105469 273.847656 C 469.453125 268.363281 476.507812 242.375 472.09375 222.023438 " fill-opacity="1" fill-rule="nonzero"/><path stroke-linecap="round" transform="matrix(-0.0252262, 0, 0, -0.0252105, 760.670552, 535.553493)" fill="none" stroke-linejoin="round" d="M 11439.699207 12436.786148 C 11540.660509 12902.861388 11841.066835 14517.700536 11765.655556 14599.201725 C 11690.244277 14680.547969 11420.033432 14743.14584 11420.033432 14743.14584 C 11123.65317 14805.278876 10828.821394 14937.91199 10828.821394 14937.91199 C 10592.986943 15133.917701 10556.132971 16300.035474 10556.132971 16300.035474 C 10556.132971 16300.035474 10471.275926 16239.142 10365.669166 16158.260592 C 10260.217255 16239.142 10175.36021 16300.035474 10175.36021 16300.035474 C 10175.36021 16300.035474 10138.506238 15133.917701 9902.516938 14937.91199 C 9902.516938 14937.91199 9607.840011 14805.278876 9311.3049 14743.14584 C 9311.3049 14743.14584 9041.094055 14680.547969 8965.837624 14599.201725 C 8890.426346 14517.700536 9190.832672 12902.861388 9291.793974 12436.786148 C 9466.618068 11629.521519 9187.116305 10598.670928 9093.897435 10380.972886 L 11637.440897 10380.972886 C 11544.376876 10598.670928 11264.875113 11629.521519 11439.699207 12436.786148 Z M 11439.699207 12436.786148 " stroke="#24265d" stroke-width="46.280998" stroke-opacity="1" stroke-miterlimit="10"/><path fill="#4e96d7" d="M 472.097656 222.023438 C 471.070312 217.292969 469.230469 207.859375 467.519531 198.144531 C 470.382812 194.527344 478.992188 181.9375 478.515625 162.3125 C 480.945312 161.554688 483.125 160.753906 484.730469 160.117188 C 485.585938 164.265625 488.808594 175.5625 498.636719 176.996094 C 508.808594 175.511719 511.90625 163.460938 512.625 159.707031 C 512.628906 159.710938 512.632812 159.710938 512.636719 159.714844 C 512.777344 159.769531 512.925781 159.832031 513.082031 159.894531 C 513.15625 159.921875 513.234375 159.953125 513.308594 159.984375 C 513.46875 160.046875 513.621094 160.109375 513.789062 160.171875 C 513.855469 160.203125 513.925781 160.226562 513.992188 160.253906 C 514.351562 160.390625 514.734375 160.539062 515.136719 160.691406 C 515.191406 160.710938 515.242188 160.726562 515.292969 160.75 C 515.503906 160.828125 515.71875 160.910156 515.9375 160.988281 C 516.023438 161.015625 516.105469 161.050781 516.191406 161.078125 C 516.421875 161.164062 516.660156 161.246094 516.894531 161.332031 C 516.945312 161.347656 516.996094 161.363281 517.042969 161.378906 C 517.59375 161.574219 518.167969 161.769531 518.761719 161.964844 C 518.050781 185.6875 530.664062 199.238281 530.664062 199.238281 C 530.253906 201.550781 529.839844 203.835938 529.429688 206.035156 C 529.421875 206.078125 529.414062 206.125 529.40625 206.171875 C 529.207031 207.230469 529.015625 208.269531 528.824219 209.285156 C 528.8125 209.324219 528.804688 209.363281 528.800781 209.40625 C 528.609375 210.410156 528.421875 211.386719 528.238281 212.328125 C 528.226562 212.382812 528.21875 212.4375 528.210938 212.492188 C 528.117188 212.960938 528.027344 213.417969 527.9375 213.871094 C 527.9375 213.878906 527.9375 213.886719 527.9375 213.890625 C 527.851562 214.324219 527.769531 214.742188 527.6875 215.15625 C 527.675781 215.21875 527.664062 215.277344 527.652344 215.332031 C 527.570312 215.75 527.488281 216.160156 527.410156 216.554688 C 527.402344 216.597656 527.394531 216.636719 527.386719 216.679688 C 527.308594 217.0625 527.234375 217.433594 527.164062 217.796875 C 527.15625 217.820312 527.148438 217.851562 527.144531 217.878906 C 527.070312 218.242188 527 218.59375 526.929688 218.933594 C 526.914062 219.011719 526.898438 219.085938 526.882812 219.164062 C 526.820312 219.457031 526.761719 219.738281 526.707031 220.015625 C 526.699219 220.058594 526.6875 220.109375 526.679688 220.152344 C 526.613281 220.460938 526.550781 220.757812 526.488281 221.039062 C 526.476562 221.097656 526.46875 221.152344 526.457031 221.207031 C 526.394531 221.492188 526.335938 221.765625 526.28125 222.023438 C 521.867188 242.375 528.917969 268.363281 531.273438 273.847656 L 467.105469 273.847656 C 469.453125 268.363281 476.507812 242.375 472.097656 222.023438 " fill-opacity="1" fill-rule="nonzero"/><path stroke-linecap="round" transform="matrix(-0.023401, 0, 0, -0.0233864, 760.670552, 535.553493)" fill="none" stroke-linejoin="round" d="M 12331.662334 13406.521616 C 12375.564087 13608.796104 12454.18662 14012.175864 12527.300567 14427.581853 C 12404.943208 14582.252519 12037.036496 15120.593292 12057.401568 15959.756817 C 11953.573086 15992.160823 11860.42792 16026.402169 11791.820997 16053.628215 C 11755.264023 15876.241339 11617.549396 15393.187813 11197.561516 15331.887452 C 10762.884076 15395.359215 10630.511108 15910.649716 10599.796573 16071.166465 C 10599.629646 16070.999434 10599.462719 16070.999434 10599.295792 16070.832403 C 10593.286427 16068.49397 10586.943207 16065.821475 10580.266135 16063.148979 C 10577.094525 16061.979763 10573.755989 16060.643515 10570.584379 16059.307267 C 10563.740379 16056.801803 10557.230233 16053.962277 10550.05238 16051.289781 C 10547.214624 16049.953534 10544.209941 16048.951348 10541.372186 16047.782131 C 10526.014918 16041.936048 10509.65609 16035.588871 10492.462627 16029.074664 C 10490.125652 16028.239509 10487.955603 16027.571386 10485.785554 16026.5692 C 10476.771506 16023.228581 10467.590531 16019.887962 10458.242629 16016.380311 C 10454.570239 16015.211095 10451.064776 16013.707816 10447.392386 16012.538599 C 10437.543703 16008.863918 10427.361167 16005.356268 10417.345558 16001.681587 C 10415.175509 16001.013463 10413.005461 16000.34534 10411.002339 15999.677216 C 10387.465657 15991.325668 10362.927415 15982.97412 10337.554538 15974.622572 C 10367.935219 14960.243573 9828.928516 14380.813185 9828.928516 14380.813185 C 9846.455832 14281.930859 9864.150075 14184.217749 9881.677391 14090.179321 C 9882.011245 14088.34198 9882.345099 14086.337609 9882.678952 14084.333237 C 9891.19222 14039.067848 9899.371634 13994.637614 9907.551049 13951.209565 C 9908.051829 13949.539255 9908.385683 13947.868946 9908.55261 13946.031605 C 9916.732024 13903.104649 9924.744511 13861.34691 9932.590072 13821.09245 C 9933.090852 13818.754016 9933.424706 13816.415583 9933.758559 13814.07715 C 9937.764803 13794.033435 9941.60412 13774.490813 9945.443437 13755.115222 C 9945.443437 13754.78116 9945.443437 13754.447098 9945.443437 13754.280067 C 9949.115827 13735.739631 9952.62129 13717.867319 9956.126753 13700.162037 C 9956.627534 13697.489542 9957.128314 13694.984078 9957.629095 13692.645644 C 9961.134558 13674.773332 9964.640021 13657.235081 9967.978558 13640.364955 C 9968.312411 13638.527614 9968.646265 13636.857305 9968.980119 13635.019964 C 9972.318655 13618.65093 9975.490265 13602.78299 9978.494947 13587.249111 C 9978.828801 13586.246925 9979.162655 13584.910677 9979.329581 13583.741461 C 9982.501191 13568.207582 9985.505874 13553.174796 9988.510557 13538.643102 C 9989.178264 13535.302483 9989.845971 13532.128895 9990.513678 13528.788276 C 9993.184507 13516.260954 9995.68841 13504.234725 9998.025385 13492.375527 C 9998.359239 13490.538187 9998.860019 13488.366784 9999.193873 13486.529444 C 10002.031629 13473.333998 10004.702458 13460.639646 10007.373287 13448.613417 C 10007.874068 13446.107952 10008.207921 13443.769519 10008.708702 13441.431086 C 10011.379531 13429.237826 10013.883433 13417.545659 10016.220409 13406.521616 C 10204.847716 12536.290332 9903.544805 11425.033378 9802.887932 11190.521915 L 12544.99481 11190.521915 C 12444.671791 11425.033378 12143.201954 12536.290332 12331.662334 13406.521616 Z M 12331.662334 13406.521616 " stroke="#24265d" stroke-width="49.889999" stroke-opacity="1" stroke-miterlimit="10"/><path fill="#f8a789" d="M 483.351562 122.203125 C 483.351562 122.203125 481.648438 106.363281 489.804688 100.996094 C 492.097656 99.476562 495.535156 98.585938 499.191406 98.472656 L 499.191406 98.515625 C 502.84375 98.609375 506.285156 99.535156 508.582031 101.039062 C 516.730469 106.417969 515.035156 122.257812 515.035156 122.257812 C 519.683594 118.101562 521.601562 124.320312 520.117188 128.777344 C 518.632812 133.1875 515.089844 132.605469 515.089844 132.605469 C 512.726562 142.074219 505.382812 149.285156 500.574219 150.0625 C 500.066406 150.148438 499.609375 150.222656 499.191406 150.261719 L 499.191406 150.222656 C 498.773438 150.164062 498.316406 150.105469 497.804688 150.023438 C 492.992188 149.226562 485.65625 142.015625 483.292969 132.5625 C 483.292969 132.5625 479.742188 133.144531 478.257812 128.71875 C 476.773438 124.277344 478.691406 118.070312 483.351562 122.203125 " fill-opacity="1" fill-rule="nonzero"/><path stroke-linecap="round" transform="matrix(-0.0268316, 0, 0, -0.0268148, 760.670552, 535.553493)" fill="none" stroke-linejoin="round" d="M 10335.55414 15414.992321 C 10335.55414 15414.992321 10399.028844 16005.704436 10095.049071 16205.861882 C 10009.591156 16262.529456 9881.477076 16295.743355 9745.210281 16299.96793 L 9745.210281 16298.365505 C 9609.089071 16294.869305 9480.829406 16260.344331 9395.225907 16204.259457 C 9091.537303 16003.664986 9154.720838 15412.952871 9154.720838 15412.952871 C 8981.475661 15567.951069 8909.993828 15336.036473 8965.315817 15169.821301 C 9020.637806 15005.354229 9152.68266 15027.059803 9152.68266 15027.059803 C 9240.76109 14673.94361 9514.459353 14405.027565 9693.673481 14376.03824 C 9712.599425 14372.83339 9729.632774 14370.065565 9745.210281 14368.608815 L 9745.210281 14370.065565 C 9760.787789 14372.25069 9777.821138 14374.435815 9796.892666 14377.49499 C 9976.252379 14407.21269 10249.659473 14676.128735 10337.737903 15028.662228 C 10337.737903 15028.662228 10470.073925 15006.956654 10525.395914 15172.006426 C 10580.717903 15337.638898 10509.23607 15569.116469 10335.55414 15414.992321 Z M 10335.55414 15414.992321 " stroke="#24265d" stroke-width="43.511002" stroke-opacity="1" stroke-miterlimit="10"/><path fill="#24265d" d="M 497.917969 122.917969 C 497.917969 122.917969 496.925781 125.097656 496.414062 127.480469 C 496.1875 128.667969 496.007812 129.9375 496.472656 130.988281 C 496.695312 131.511719 497.160156 131.878906 497.492188 132 C 497.828125 132.136719 498.023438 132.140625 498.023438 132.152344 L 498.097656 132.160156 C 498.417969 132.183594 498.699219 131.945312 498.726562 131.625 C 498.75 131.304688 498.511719 131.023438 498.191406 130.996094 C 498.183594 130.996094 498.171875 130.996094 498.160156 130.996094 C 498.164062 130.988281 498.054688 130.992188 497.90625 130.945312 C 497.753906 130.902344 497.570312 130.804688 497.402344 130.519531 C 497.050781 129.945312 497.03125 128.734375 497.175781 127.605469 C 497.316406 126.457031 497.597656 125.3125 497.832031 124.460938 C 498.074219 123.609375 498.265625 123.054688 498.265625 123.054688 C 498.300781 122.957031 498.25 122.851562 498.152344 122.816406 C 498.058594 122.785156 497.957031 122.832031 497.917969 122.917969 " fill-opacity="1" fill-rule="nonzero"/><path stroke-linecap="round" transform="matrix(-0.0246085, 0, 0, -0.0245931, 760.670552, 535.553493)" fill="none" stroke-linejoin="round" d="M 10530.654012 16300.082447 C 10544.464048 16268.950774 10575.417576 16227.018316 10643.197866 16223.365109 C 10676.532434 16221.617924 10736.85213 16247.349205 10765.74209 16300.082447 " stroke="#24265d" stroke-width="47.442001" stroke-opacity="1" stroke-miterlimit="10"/><path stroke-linecap="round" transform="matrix(-0.0256545, 0, 0, -0.0256385, 760.670552, 535.553493)" fill="none" stroke-linejoin="round" d="M 10339.878366 16221.745543 C 10339.878366 16221.745543 10460.166765 16300.057958 10542.236952 16200.72003 " stroke="#24265d" stroke-width="45.508999" stroke-opacity="1" stroke-miterlimit="10"/><path stroke-linecap="round" transform="matrix(-0.0252965, 0, 0, -0.0252807, 760.670552, 535.553493)" fill="none" stroke-linejoin="round" d="M 10661.027914 16300.071279 C 10661.027914 16259.433779 10627.827853 16226.213009 10586.598009 16226.213009 C 10545.522584 16226.213009 10512.785779 16259.433779 10512.785779 16300.071279 " stroke="#24265d" stroke-width="46.153999" stroke-opacity="1" stroke-miterlimit="10"/><path stroke-linecap="round" transform="matrix(-0.0252965, 0, 0, -0.0252807, 760.670552, 535.553493)" fill="none" stroke-linejoin="round" d="M 10161.637222 16300.071279 C 10161.637222 16259.433779 10128.282742 16226.213009 10087.052898 16226.213009 C 10046.131892 16226.213009 10013.395088 16259.433779 10013.395088 16300.071279 " stroke="#24265d" stroke-width="46.153999" stroke-opacity="1" stroke-miterlimit="10"/><path fill="#80bae8" d="M 492.871094 103.203125 C 492.871094 103.203125 486.792969 121.339844 483.351562 122.207031 L 481.539062 121.042969 C 481.539062 121.042969 476.578125 101.636719 486.175781 97.625 C 486.175781 97.625 488.832031 96.433594 491.273438 96.78125 L 492.871094 103.203125 " fill-opacity="1" fill-rule="nonzero"/><path stroke-linecap="round" transform="matrix(-0.0269579, 0, 0, -0.0269411, 760.670552, 535.553493)" fill="none" stroke-linejoin="round" d="M 9934.414106 16048.701227 C 9934.414106 16048.701227 10159.881211 15375.502697 10287.684544 15343.314441 L 10354.774048 15386.5221 C 10354.774048 15386.5221 10538.944158 16106.843077 10182.775685 16255.75001 C 10182.775685 16255.75001 10084.242503 16299.972615 9993.678917 16286.923321 Z M 9934.414106 16048.701227 " stroke="#24265d" stroke-width="43.308998" stroke-opacity="1" stroke-miterlimit="10"/><path fill="#24265d" d="M 482.542969 121.6875 L 482.105469 121.40625 C 478.574219 100.449219 490.832031 97.683594 490.957031 97.65625 C 491.0625 97.636719 491.164062 97.703125 491.1875 97.808594 C 491.210938 97.914062 491.136719 98.015625 491.035156 98.039062 C 490.914062 98.066406 478.886719 100.796875 482.542969 121.6875 " fill-opacity="1" fill-rule="nonzero"/><path fill="#24265d" d="M 492.40625 101.324219 L 492.503906 101.722656 C 491.640625 102.625 483.328125 111.640625 483.488281 122.148438 C 483.441406 122.167969 483.394531 122.191406 483.351562 122.203125 L 483.09375 122.042969 C 482.988281 110.902344 492.207031 101.460938 492.304688 101.367188 C 492.332031 101.335938 492.367188 101.332031 492.40625 101.324219 " fill-opacity="1" fill-rule="nonzero"/><path fill="#80bae8" d="M 517.925781 120.894531 C 517.925781 120.894531 515.945312 123.976562 513.59375 122.988281 C 511.246094 121.996094 492.292969 113.1875 490.996094 103.203125 L 490.996094 96.9375 C 490.996094 96.9375 501.707031 90.449219 511.890625 98.472656 C 522.078125 106.5 517.925781 120.894531 517.925781 120.894531 " fill-opacity="1" fill-rule="nonzero"/><path stroke-linecap="round" transform="matrix(-0.027323, 0, 0, -0.0273059, 760.670552, 535.553493)" fill="none" stroke-linejoin="round" d="M 8883.844219 15184.953374 C 8883.844219 15184.953374 8956.327862 15072.083016 9042.393252 15108.418974 C 9128.458642 15144.754932 9821.985568 15467.343851 9869.450201 15832.849255 L 9869.450201 16062.309399 C 9869.450201 16062.309399 9477.438074 16300.066731 9104.726325 16006.088803 C 8732.014577 15712.25393 8883.844219 15184.953374 8883.844219 15184.953374 Z M 8883.844219 15184.953374 " stroke="#24265d" stroke-width="42.727001" stroke-opacity="1" stroke-miterlimit="10"/><path stroke-linecap="round" transform="matrix(-0.0256545, 0, 0, -0.0256385, 760.670552, 535.553493)" fill="none" stroke-linejoin="round" d="M 10045.856974 16221.745543 C 10045.856974 16221.745543 9925.568574 16300.057958 9843.346124 16200.72003 " stroke="#24265d" stroke-width="45.508999" stroke-opacity="1" stroke-miterlimit="10"/><path fill="#24265d" d="M 515.621094 122.808594 C 515.660156 122.832031 515.6875 122.871094 515.703125 122.90625 C 515.566406 122.972656 515.421875 123.027344 515.277344 123.070312 C 513.464844 122.089844 495.84375 112.140625 493.28125 95.867188 C 493.402344 95.820312 493.53125 95.777344 493.65625 95.726562 C 496.269531 112.644531 515.417969 122.707031 515.621094 122.808594 " fill-opacity="1" fill-rule="nonzero"/><path fill="#24265d" d="M 517.480469 121.476562 C 517.398438 121.574219 517.3125 121.671875 517.210938 121.773438 C 515.5625 119.613281 504.398438 104.773438 501.445312 94.480469 C 501.585938 94.484375 501.722656 94.496094 501.859375 94.503906 C 504.828125 104.640625 515.707031 119.152344 517.480469 121.476562 " fill-opacity="1" fill-rule="nonzero"/><path stroke-linecap="round" transform="matrix(-0.023401, 0, 0, -0.0233864, 760.670552, 535.553493)" fill-opacity="1" fill="#f39477" fill-rule="nonzero" stroke-linejoin="round" d="M 9785.193689 15811.433328 C 9785.193689 15811.433328 9486.728535 15750.299998 9277.569229 15404.378887 C 9104.299189 15117.920796 8768.609353 14035.727229 8658.270725 13672.434898 C 8657.936872 13671.098651 8499.356392 13211.429458 8538.417268 13183.535289 C 8577.311217 13155.641119 8417.06147 12739.734037 10914.954409 13494.713961 C 10914.954409 13494.713961 11127.452252 13469.492286 11144.311861 13548.999022 C 11161.004543 13628.672788 11144.311861 14248.023575 11144.311861 14248.023575 C 11144.311861 14248.023575 11119.105911 14302.308636 11085.720547 14248.023575 C 11052.168256 14193.571483 10937.823384 13672.434898 10937.823384 13672.434898 C 10937.823384 13672.434898 9608.585113 13604.453299 9027.679779 13557.851662 C 9296.265033 13918.638528 9699.393304 14631.35962 9785.193689 14768.157973 " stroke="#24265d" stroke-width="49.889999" stroke-opacity="1" stroke-miterlimit="10"/><path stroke-linecap="round" transform="matrix(-0.023401, 0, 0, -0.0233864, 760.670552, 535.553493)" fill-opacity="1" fill="#f39477" fill-rule="nonzero" stroke-linejoin="round" d="M 12530.472177 14768.157973 C 12616.439489 14631.025558 13020.235468 13917.13525 13288.987648 13556.849477 C 12714.258606 13597.772061 11403.549213 13642.870419 11373.335458 13643.872605 C 11344.457118 13757.286624 11230.112246 14200.586783 11201.06698 14248.023575 C 11167.514689 14302.308636 11142.308739 14248.023575 11142.308739 14248.023575 C 11142.308739 14248.023575 11125.782984 13628.672788 11142.308739 13548.999022 C 11159.168348 13469.492286 11371.66619 13494.713961 11371.66619 13494.713961 C 13893.930445 12730.213273 13738.354649 13155.641119 13777.415525 13183.535289 C 13816.476401 13211.429458 13657.395141 13672.434898 13657.395141 13672.434898 C 13547.056513 14036.061291 13211.366677 15117.920796 13038.263564 15404.378887 C 12829.271185 15750.299998 12530.472177 15811.433328 12530.472177 15811.433328 " stroke="#24265d" stroke-width="49.889999" stroke-opacity="1" stroke-miterlimit="10"/><path fill="#f39477" d="M 503.015625 349.5625 C 505.804688 350.316406 513.988281 351.988281 524.300781 349.253906 C 529.894531 347.769531 536.644531 346.089844 542.492188 344.664062 C 544.308594 346.011719 546.347656 347.070312 548.53125 347.777344 C 549.054688 348.726562 549.566406 349.679688 550.136719 350.613281 C 551.089844 352.160156 552.199219 353.609375 553.339844 355.023438 C 553.875 356.222656 554.515625 357.351562 555.242188 358.410156 C 549.460938 358.410156 544.449219 358.210938 542.191406 358.125 C 536.765625 357.925781 515.886719 358.03125 506.546875 358.09375 C 506.546875 358.09375 499.40625 365.863281 498.621094 369.582031 C 498.621094 369.582031 497.496094 372.269531 496.441406 370.507812 L 496.246094 349.578125 C 496.246094 349.578125 497.46875 345.46875 503.015625 349.5625 " fill-opacity="1" fill-rule="nonzero"/><path stroke-linecap="round" transform="matrix(-0.023401, 0, 0, -0.0233864, 760.670552, 535.553493)" fill="none" stroke-linejoin="round" d="M 11010.436551 7952.960885 C 10891.250801 7920.72391 10541.539112 7849.234661 10100.852307 7966.156331 C 9861.8131 8029.628094 9573.363554 8101.451405 9323.474104 8162.417705 C 9245.853133 8104.792025 9158.717333 8059.526635 9065.40524 8029.294032 C 9043.037046 7988.872541 9021.169633 7947.949956 8996.798317 7908.029558 C 8956.068173 7841.885299 8908.660956 7779.916814 8859.918324 7719.451608 C 8837.04935 7668.173104 8809.673351 7619.901158 8778.624963 7574.635768 C 9025.676657 7574.635768 9239.843767 7583.154347 9336.327469 7586.829028 C 9568.188823 7595.347607 10460.412678 7590.837771 10859.534705 7588.165276 C 10859.534705 7588.165276 11164.676933 7255.940703 11198.229224 7096.927233 C 11198.229224 7096.927233 11246.304148 6982.009935 11291.374389 7057.340896 L 11299.72073 7952.292761 C 11299.72073 7952.292761 11247.472636 8128.009327 11010.436551 7952.960885 Z M 11010.436551 7952.960885 " stroke="#24265d" stroke-width="49.889999" stroke-opacity="1" stroke-miterlimit="10"/></svg>