<svg xmlns="http://www.w3.org/2000/svg" xmlns:xlink="http://www.w3.org/1999/xlink" width="500" zoomAndPan="magnify" viewBox="0 0 375 374.999991" height="500" preserveAspectRatio="xMidYMid meet" version="1.0"><defs><g/><clipPath id="e231577b19"><path d="M 196 108.84375 L 231 108.84375 L 231 197 L 196 197 Z M 196 108.84375 " clip-rule="nonzero"/></clipPath><clipPath id="180440a5b1"><path d="M 189 108.84375 L 226 108.84375 L 226 197 L 189 197 Z M 189 108.84375 " clip-rule="nonzero"/></clipPath><clipPath id="5e636891f5"><path d="M 144 108.84375 L 179 108.84375 L 179 197 L 144 197 Z M 144 108.84375 " clip-rule="nonzero"/></clipPath><clipPath id="c7c393c0bb"><path d="M 149 108.84375 L 186 108.84375 L 186 197 L 149 197 Z M 149 108.84375 " clip-rule="nonzero"/></clipPath><clipPath id="ea795853b2"><path d="M 176 171 L 238.820312 171 L 238.820312 197.34375 L 176 197.34375 Z M 176 171 " clip-rule="nonzero"/></clipPath><clipPath id="921b1e511f"><path d="M 136.070312 170 L 200 170 L 200 197.34375 L 136.070312 197.34375 Z M 136.070312 170 " clip-rule="nonzero"/></clipPath><clipPath id="8d01d39aa4"><path d="M 187 176 L 238.820312 176 L 238.820312 197 L 187 197 Z M 187 176 " clip-rule="nonzero"/></clipPath><clipPath id="21932b3a06"><path d="M 136.070312 176 L 189 176 L 189 197 L 136.070312 197 Z M 136.070312 176 " clip-rule="nonzero"/></clipPath></defs><path fill="#2b92df" d="M 187.519531 141.757812 C 186.921875 141.757812 186.332031 141.699219 185.746094 141.582031 C 185.160156 141.464844 184.59375 141.292969 184.042969 141.066406 C 183.492188 140.835938 182.96875 140.558594 182.472656 140.226562 C 181.976562 139.894531 181.519531 139.519531 181.097656 139.097656 C 180.675781 138.675781 180.296875 138.214844 179.964844 137.71875 C 179.636719 137.222656 179.355469 136.699219 179.128906 136.148438 C 178.898438 135.597656 178.726562 135.03125 178.609375 134.445312 C 178.496094 133.859375 178.4375 133.269531 178.4375 132.675781 C 178.4375 132.078125 178.496094 131.488281 178.609375 130.902344 C 178.726562 130.316406 178.898438 129.75 179.128906 129.199219 C 179.355469 128.648438 179.636719 128.125 179.964844 127.628906 C 180.296875 127.132812 180.675781 126.675781 181.097656 126.253906 C 181.519531 125.832031 181.976562 125.453125 182.472656 125.121094 C 182.96875 124.792969 183.492188 124.511719 184.042969 124.285156 C 184.59375 124.054688 185.160156 123.882812 185.746094 123.765625 C 186.332031 123.652344 186.921875 123.59375 187.519531 123.59375 C 188.113281 123.59375 188.703125 123.652344 189.289062 123.765625 C 189.875 123.882812 190.441406 124.054688 190.992188 124.285156 C 191.542969 124.511719 192.066406 124.792969 192.5625 125.121094 C 193.058594 125.453125 193.519531 125.832031 193.941406 126.253906 C 194.363281 126.675781 194.738281 127.132812 195.070312 127.628906 C 195.402344 128.125 195.679688 128.648438 195.910156 129.199219 C 196.136719 129.75 196.308594 130.316406 196.425781 130.902344 C 196.542969 131.488281 196.601562 132.078125 196.601562 132.675781 C 196.601562 133.269531 196.542969 133.859375 196.425781 134.445312 C 196.308594 135.03125 196.136719 135.597656 195.910156 136.148438 C 195.679688 136.699219 195.402344 137.222656 195.070312 137.71875 C 194.738281 138.214844 194.363281 138.675781 193.941406 139.097656 C 193.519531 139.519531 193.058594 139.894531 192.5625 140.226562 C 192.066406 140.558594 191.542969 140.835938 190.992188 141.066406 C 190.441406 141.292969 189.875 141.464844 189.289062 141.582031 C 188.703125 141.699219 188.113281 141.757812 187.519531 141.757812 Z M 187.519531 124.882812 C 187.003906 124.882812 186.5 124.933594 185.996094 125.03125 C 185.492188 125.132812 185.003906 125.28125 184.53125 125.476562 C 184.058594 125.671875 183.609375 125.914062 183.183594 126.195312 C 182.757812 126.480469 182.363281 126.804688 182 127.167969 C 181.640625 127.527344 181.316406 127.921875 181.03125 128.347656 C 180.746094 128.773438 180.507812 129.226562 180.308594 129.699219 C 180.113281 130.171875 179.964844 130.660156 179.867188 131.160156 C 179.765625 131.664062 179.714844 132.171875 179.714844 132.683594 C 179.714844 133.195312 179.765625 133.703125 179.867188 134.207031 C 179.964844 134.707031 180.113281 135.195312 180.308594 135.667969 C 180.507812 136.140625 180.746094 136.589844 181.03125 137.019531 C 181.316406 137.445312 181.640625 137.835938 182 138.199219 C 182.363281 138.5625 182.757812 138.886719 183.183594 139.171875 C 183.609375 139.453125 184.058594 139.695312 184.53125 139.890625 C 185.003906 140.085938 185.492188 140.234375 185.996094 140.335938 C 186.5 140.433594 187.003906 140.484375 187.519531 140.484375 C 188.03125 140.484375 188.539062 140.433594 189.039062 140.335938 C 189.542969 140.234375 190.03125 140.085938 190.503906 139.890625 C 190.976562 139.695312 191.425781 139.453125 191.851562 139.171875 C 192.277344 138.886719 192.671875 138.5625 193.035156 138.199219 C 193.398438 137.835938 193.71875 137.445312 194.003906 137.019531 C 194.289062 136.589844 194.53125 136.140625 194.726562 135.667969 C 194.921875 135.195312 195.070312 134.707031 195.167969 134.207031 C 195.269531 133.703125 195.320312 133.195312 195.320312 132.683594 C 195.320312 132.171875 195.269531 131.664062 195.167969 131.160156 C 195.066406 130.660156 194.917969 130.171875 194.722656 129.699219 C 194.527344 129.226562 194.285156 128.777344 194.003906 128.351562 C 193.71875 127.925781 193.394531 127.53125 193.03125 127.167969 C 192.667969 126.808594 192.277344 126.484375 191.851562 126.199219 C 191.425781 125.914062 190.976562 125.675781 190.503906 125.476562 C 190.027344 125.28125 189.542969 125.132812 189.039062 125.035156 C 188.539062 124.933594 188.03125 124.882812 187.519531 124.882812 Z M 187.519531 124.882812 " fill-opacity="1" fill-rule="nonzero"/><g clip-path="url(#e231577b19)"><path fill="#2b92df" d="M 225.371094 196.003906 C 216.527344 196.003906 207.933594 191.207031 202.222656 182.84375 C 195.355469 172.78125 194.558594 160.320312 200.179688 151.054688 C 202.902344 146.515625 206.910156 142.335938 210.785156 138.296875 C 218.625 130.1875 226.734375 121.757812 224.644531 109.679688 C 224.613281 109.511719 224.644531 109.355469 224.738281 109.210938 C 224.832031 109.066406 224.960938 108.972656 225.125 108.933594 C 225.300781 108.902344 225.457031 108.9375 225.601562 109.039062 C 225.746094 109.140625 225.832031 109.277344 225.863281 109.453125 C 228.105469 122.167969 219.757812 130.832031 211.703125 139.203125 C 207.871094 143.191406 203.910156 147.304688 201.269531 151.738281 C 195.902344 160.546875 196.726562 172.472656 203.277344 182.117188 C 209.632812 191.398438 219.625 196.09375 229.386719 194.378906 C 229.558594 194.347656 229.71875 194.382812 229.863281 194.484375 C 230.007812 194.585938 230.09375 194.722656 230.125 194.894531 C 230.152344 195.070312 230.117188 195.226562 230.015625 195.371094 C 229.914062 195.515625 229.777344 195.601562 229.605469 195.632812 C 228.203125 195.878906 226.792969 196 225.371094 196.003906 Z M 225.371094 196.003906 " fill-opacity="1" fill-rule="nonzero"/></g><g clip-path="url(#180440a5b1)"><path fill="#2b92df" d="M 217.789062 196.65625 C 207.796875 196.65625 198.378906 190.300781 193.066406 179.910156 C 187.34375 168.722656 188.007812 156.035156 194.746094 147.597656 C 198.015625 143.417969 202.523438 139.785156 206.882812 136.28125 C 215.691406 129.1875 224.800781 121.847656 224.21875 109.597656 C 224.210938 109.421875 224.265625 109.269531 224.382812 109.140625 C 224.5 109.011719 224.644531 108.945312 224.816406 108.933594 C 224.992188 108.929688 225.144531 108.984375 225.277344 109.101562 C 225.40625 109.21875 225.476562 109.367188 225.488281 109.542969 C 226.097656 122.429688 216.734375 129.976562 207.679688 137.269531 C 203.375 140.722656 198.925781 144.355469 195.746094 148.378906 C 189.316406 156.441406 188.707031 168.585938 194.195312 179.335938 C 199.480469 189.691406 208.914062 195.832031 218.851562 195.359375 C 219.027344 195.347656 219.179688 195.402344 219.308594 195.519531 C 219.4375 195.636719 219.507812 195.78125 219.515625 195.957031 C 219.523438 196.132812 219.464844 196.289062 219.347656 196.417969 C 219.230469 196.550781 219.082031 196.621094 218.90625 196.628906 C 218.535156 196.648438 218.164062 196.65625 217.789062 196.65625 Z M 217.789062 196.65625 " fill-opacity="1" fill-rule="nonzero"/></g><g clip-path="url(#5e636891f5)"><path fill="#2b92df" d="M 149.617188 196.003906 C 148.199219 196.003906 146.785156 195.882812 145.386719 195.640625 C 145.214844 195.605469 145.078125 195.515625 144.980469 195.371094 C 144.878906 195.222656 144.847656 195.0625 144.882812 194.890625 C 144.914062 194.71875 145.003906 194.582031 145.152344 194.484375 C 145.296875 194.382812 145.457031 194.351562 145.632812 194.386719 C 155.386719 196.121094 165.394531 191.40625 171.722656 182.125 C 178.328125 172.507812 179.089844 160.554688 173.730469 151.753906 C 171.0625 147.316406 167.128906 143.199219 163.296875 139.214844 C 155.230469 130.839844 146.894531 122.175781 149.136719 109.460938 C 149.148438 109.269531 149.230469 109.117188 149.378906 109 C 149.527344 108.882812 149.695312 108.839844 149.882812 108.871094 C 150.070312 108.90625 150.210938 109 150.3125 109.164062 C 150.414062 109.324219 150.4375 109.496094 150.382812 109.679688 C 148.265625 121.757812 156.367188 130.1875 164.214844 138.332031 C 168.089844 142.375 172.105469 146.507812 174.820312 151.09375 C 180.441406 160.320312 179.636719 172.78125 172.777344 182.878906 C 167.066406 191.207031 158.464844 196.003906 149.617188 196.003906 Z M 149.617188 196.003906 " fill-opacity="1" fill-rule="nonzero"/></g><g clip-path="url(#c7c393c0bb)"><path fill="#2b92df" d="M 157.210938 196.65625 C 156.835938 196.65625 156.464844 196.65625 156.09375 196.65625 C 155.917969 196.648438 155.769531 196.578125 155.652344 196.445312 C 155.535156 196.316406 155.476562 196.160156 155.484375 195.984375 C 155.492188 195.808594 155.5625 195.664062 155.691406 195.546875 C 155.820312 195.429688 155.972656 195.375 156.148438 195.386719 C 166.074219 195.847656 175.511719 189.71875 180.796875 179.363281 C 186.292969 168.585938 185.683594 156.441406 179.234375 148.386719 C 176.074219 144.355469 171.625 140.722656 167.320312 137.269531 C 158.238281 130.003906 148.902344 122.429688 149.511719 109.542969 C 149.519531 109.367188 149.589844 109.222656 149.71875 109.101562 C 149.847656 108.984375 150 108.929688 150.171875 108.933594 C 150.347656 108.941406 150.496094 109.007812 150.613281 109.140625 C 150.734375 109.269531 150.789062 109.421875 150.78125 109.597656 C 150.171875 121.847656 159.308594 129.1875 168.117188 136.28125 C 172.476562 139.8125 176.984375 143.445312 180.253906 147.597656 C 186.992188 156.035156 187.65625 168.722656 181.933594 179.910156 C 176.621094 190.328125 167.21875 196.65625 157.210938 196.65625 Z M 157.210938 196.65625 " fill-opacity="1" fill-rule="nonzero"/></g><g clip-path="url(#ea795853b2)"><path fill="#2b92df" d="M 188.917969 197.03125 C 182.277344 197.03125 177.335938 197.03125 176.730469 197.03125 C 176.585938 197.027344 176.457031 196.984375 176.339844 196.894531 C 176.226562 196.808594 176.152344 196.691406 176.117188 196.554688 C 176.082031 196.414062 176.089844 196.277344 176.148438 196.144531 C 176.203125 196.011719 176.292969 195.910156 176.417969 195.839844 C 178.054688 194.933594 216.378906 173.070312 222.792969 171.425781 C 223.59375 171.222656 224.40625 171.101562 225.230469 171.058594 C 226.054688 171.015625 226.875 171.050781 227.691406 171.167969 C 228.507812 171.289062 229.308594 171.484375 230.085938 171.757812 C 230.863281 172.035156 231.609375 172.382812 232.320312 172.804688 C 233.027344 173.226562 233.691406 173.710938 234.304688 174.265625 C 234.917969 174.816406 235.472656 175.421875 235.96875 176.082031 C 236.464844 176.746094 236.890625 177.449219 237.246094 178.191406 C 237.601562 178.9375 237.882812 179.710938 238.085938 180.507812 C 238.292969 181.308594 238.417969 182.121094 238.460938 182.949219 C 238.507812 183.773438 238.46875 184.59375 238.351562 185.410156 C 238.234375 186.230469 238.039062 187.027344 237.765625 187.808594 C 237.488281 188.585938 237.140625 189.332031 236.71875 190.042969 C 236.296875 190.75 235.808594 191.414062 235.257812 192.027344 C 234.707031 192.640625 234.097656 193.195312 233.4375 193.691406 C 232.773438 194.183594 232.070312 194.609375 231.324219 194.964844 C 230.578125 195.320312 229.804688 195.601562 229.003906 195.804688 C 224.699219 196.867188 202.992188 197.03125 188.917969 197.03125 Z M 179.117188 195.757812 C 188.582031 195.8125 223.328125 195.914062 228.722656 194.523438 C 229.445312 194.339844 230.140625 194.089844 230.8125 193.773438 C 231.480469 193.453125 232.113281 193.070312 232.710938 192.625 C 233.304688 192.183594 233.851562 191.683594 234.351562 191.132812 C 234.847656 190.578125 235.285156 189.984375 235.664062 189.34375 C 236.046875 188.707031 236.359375 188.035156 236.605469 187.335938 C 236.855469 186.636719 237.03125 185.917969 237.136719 185.183594 C 237.242188 184.445312 237.273438 183.707031 237.234375 182.964844 C 237.195312 182.222656 237.082031 181.492188 236.898438 180.773438 C 236.710938 180.054688 236.457031 179.363281 236.136719 178.695312 C 235.816406 178.027344 235.429688 177.394531 234.984375 176.804688 C 234.539062 176.210938 234.042969 175.667969 233.488281 175.171875 C 232.9375 174.679688 232.339844 174.242188 231.703125 173.863281 C 231.066406 173.488281 230.394531 173.175781 229.695312 172.929688 C 228.996094 172.683594 228.28125 172.511719 227.546875 172.40625 C 226.8125 172.300781 226.074219 172.269531 225.335938 172.308594 C 224.59375 172.347656 223.863281 172.460938 223.148438 172.644531 C 217.707031 174.023438 187.410156 191.089844 179.117188 195.757812 Z M 179.117188 195.757812 " fill-opacity="1" fill-rule="nonzero"/></g><g clip-path="url(#921b1e511f)"><path fill="#2b92df" d="M 186.121094 197.03125 C 172.050781 197.03125 150.335938 196.839844 145.996094 195.730469 C 145.195312 195.527344 144.421875 195.25 143.675781 194.894531 C 142.929688 194.539062 142.226562 194.113281 141.5625 193.617188 C 140.902344 193.125 140.292969 192.570312 139.742188 191.957031 C 139.1875 191.339844 138.703125 190.679688 138.28125 189.96875 C 137.859375 189.257812 137.511719 188.511719 137.234375 187.734375 C 136.960938 186.953125 136.765625 186.15625 136.648438 185.339844 C 136.53125 184.519531 136.492188 183.699219 136.539062 182.875 C 136.582031 182.050781 136.707031 181.238281 136.914062 180.4375 C 137.117188 179.636719 137.398438 178.863281 137.753906 178.121094 C 138.109375 177.375 138.535156 176.671875 139.03125 176.011719 C 139.527344 175.351562 140.082031 174.742188 140.695312 174.191406 C 141.308594 173.640625 141.972656 173.152344 142.679688 172.730469 C 143.390625 172.308594 144.136719 171.960938 144.914062 171.6875 C 145.691406 171.410156 146.488281 171.214844 147.308594 171.097656 C 148.125 170.980469 148.945312 170.941406 149.769531 170.984375 C 150.59375 171.027344 151.40625 171.152344 152.207031 171.355469 C 158.566406 173 196.945312 194.839844 198.578125 195.765625 C 198.753906 195.804688 198.890625 195.898438 198.988281 196.046875 C 199.082031 196.199219 199.113281 196.359375 199.074219 196.535156 C 199.039062 196.707031 198.945312 196.84375 198.792969 196.941406 C 198.644531 197.039062 198.480469 197.066406 198.308594 197.03125 C 197.707031 197.03125 192.757812 197.03125 186.121094 197.03125 Z M 138.183594 180.773438 C 138 181.492188 137.886719 182.222656 137.847656 182.964844 C 137.808594 183.707031 137.839844 184.445312 137.945312 185.183594 C 138.050781 185.917969 138.226562 186.636719 138.476562 187.335938 C 138.722656 188.035156 139.035156 188.707031 139.414062 189.34375 C 139.796875 189.984375 140.234375 190.578125 140.730469 191.132812 C 141.230469 191.683594 141.773438 192.183594 142.371094 192.625 C 142.964844 193.070312 143.601562 193.453125 144.269531 193.773438 C 144.941406 194.089844 145.636719 194.339844 146.359375 194.523438 C 151.714844 195.914062 186.5 195.8125 195.917969 195.757812 C 187.671875 191.089844 157.328125 174.023438 151.933594 172.644531 C 151.214844 172.460938 150.488281 172.347656 149.746094 172.308594 C 149.007812 172.269531 148.269531 172.300781 147.535156 172.40625 C 146.800781 172.511719 146.085938 172.683594 145.386719 172.929688 C 144.6875 173.175781 144.015625 173.488281 143.378906 173.863281 C 142.742188 174.242188 142.144531 174.679688 141.59375 175.171875 C 141.039062 175.667969 140.542969 176.210938 140.09375 176.804688 C 139.648438 177.394531 139.265625 178.027344 138.945312 178.695312 C 138.625 179.363281 138.371094 180.054688 138.183594 180.773438 Z M 138.183594 180.773438 " fill-opacity="1" fill-rule="nonzero"/></g><g clip-path="url(#8d01d39aa4)"><path fill="#2b92df" d="M 187.890625 196.464844 C 187.644531 196.464844 187.457031 196.355469 187.335938 196.140625 C 187.230469 195.980469 187.203125 195.8125 187.253906 195.628906 C 187.304688 195.449219 187.414062 195.316406 187.582031 195.230469 C 201.367188 187.539062 218.667969 178.15625 222.792969 177.066406 C 223.59375 176.863281 224.40625 176.738281 225.230469 176.695312 C 226.054688 176.648438 226.875 176.6875 227.695312 176.804688 C 228.511719 176.921875 229.308594 177.117188 230.089844 177.394531 C 230.867188 177.667969 231.613281 178.015625 232.324219 178.4375 C 233.03125 178.859375 233.695312 179.347656 234.308594 179.898438 C 234.921875 180.453125 235.476562 181.058594 235.972656 181.71875 C 236.464844 182.382812 236.890625 183.085938 237.246094 183.832031 C 237.605469 184.574219 237.882812 185.347656 238.085938 186.148438 C 238.148438 186.324219 238.136719 186.496094 238.050781 186.660156 C 237.960938 186.824219 237.828125 186.929688 237.648438 186.976562 C 237.464844 187.023438 237.296875 186.996094 237.140625 186.894531 C 236.984375 186.792969 236.890625 186.652344 236.859375 186.46875 C 236.675781 185.746094 236.425781 185.054688 236.105469 184.382812 C 235.785156 183.710938 235.402344 183.082031 234.957031 182.484375 C 234.511719 181.890625 234.015625 181.34375 233.464844 180.847656 C 232.910156 180.351562 232.316406 179.914062 231.675781 179.535156 C 231.039062 179.15625 230.371094 178.839844 229.667969 178.59375 C 228.96875 178.347656 228.253906 178.167969 227.515625 178.0625 C 226.78125 177.957031 226.042969 177.921875 225.300781 177.960938 C 224.5625 178 223.832031 178.109375 223.109375 178.292969 C 219.996094 179.09375 207.597656 185.484375 188.199219 196.304688 C 188.113281 196.386719 188.007812 196.441406 187.890625 196.464844 Z M 187.890625 196.464844 " fill-opacity="1" fill-rule="nonzero"/></g><g clip-path="url(#21932b3a06)"><path fill="#2b92df" d="M 187.71875 196.785156 C 187.609375 196.785156 187.503906 196.757812 187.410156 196.703125 C 167.675781 185.695312 155.078125 179.183594 151.933594 178.375 C 151.214844 178.191406 150.484375 178.082031 149.742188 178.042969 C 149 178 148.261719 178.035156 147.527344 178.140625 C 146.792969 178.246094 146.074219 178.425781 145.375 178.671875 C 144.671875 178.917969 144.003906 179.234375 143.367188 179.613281 C 142.726562 179.992188 142.132812 180.429688 141.578125 180.925781 C 141.027344 181.425781 140.53125 181.96875 140.085938 182.566406 C 139.640625 183.160156 139.257812 183.792969 138.9375 184.464844 C 138.617188 185.132812 138.367188 185.828125 138.183594 186.550781 C 138.136719 186.71875 138.039062 186.847656 137.886719 186.9375 C 137.734375 187.023438 137.574219 187.046875 137.402344 187.003906 C 137.234375 186.957031 137.105469 186.859375 137.015625 186.710938 C 136.929688 186.558594 136.90625 186.398438 136.949219 186.230469 C 137.152344 185.429688 137.433594 184.65625 137.789062 183.914062 C 138.144531 183.167969 138.570312 182.464844 139.066406 181.804688 C 139.5625 181.140625 140.113281 180.535156 140.730469 179.984375 C 141.34375 179.429688 142.003906 178.945312 142.714844 178.523438 C 143.425781 178.101562 144.171875 177.753906 144.949219 177.476562 C 145.726562 177.203125 146.527344 177.007812 147.34375 176.886719 C 148.160156 176.769531 148.980469 176.734375 149.804688 176.777344 C 150.628906 176.820312 151.441406 176.945312 152.242188 177.148438 C 156.414062 178.210938 174.039062 187.765625 188.027344 195.59375 C 188.195312 195.679688 188.304688 195.8125 188.355469 195.992188 C 188.402344 196.175781 188.375 196.34375 188.273438 196.503906 C 188.140625 196.699219 187.953125 196.792969 187.71875 196.785156 Z M 187.71875 196.785156 " fill-opacity="1" fill-rule="nonzero"/></g><g fill="#ffffff" fill-opacity="1"><g transform="translate(62.847657, 238.567338)"><g/></g></g><g fill="#ffffff" fill-opacity="1"><g transform="translate(70.59375, 238.567338)"><g><path d="M 8.734375 0 L 11.417969 0 L 11.417969 -7.863281 L 19.625 -21.839844 L 16.535156 -21.839844 L 10.109375 -10.796875 L 7.269531 -15.726562 L 3.710938 -21.839844 L 0.53125 -21.839844 L 8.734375 -7.863281 Z M 8.734375 0 "/></g></g></g><g fill="#ffffff" fill-opacity="1"><g transform="translate(90.745936, 238.567338)"><g><path d="M 13.105469 0.40625 C 19.75 0.40625 24.429688 -4.273438 24.429688 -10.921875 C 24.429688 -17.566406 19.75 -22.246094 13.105469 -22.246094 C 6.457031 -22.246094 1.808594 -17.566406 1.808594 -10.921875 C 1.808594 -4.273438 6.457031 0.40625 13.105469 0.40625 Z M 4.617188 -10.921875 C 4.617188 -16.003906 8.082031 -19.5 13.105469 -19.5 C 18.128906 -19.5 21.589844 -16.003906 21.589844 -10.921875 C 21.589844 -5.835938 18.128906 -2.339844 13.105469 -2.339844 C 8.082031 -2.339844 4.617188 -5.835938 4.617188 -10.921875 Z M 4.617188 -10.921875 "/></g></g></g><g fill="#ffffff" fill-opacity="1"><g transform="translate(116.950021, 238.567338)"><g><path d="M 12.917969 0.40625 C 19.625 0.40625 24.148438 -4.679688 24.023438 -11.855469 L 12.167969 -11.855469 L 12.167969 -9.234375 L 21.058594 -9.234375 C 20.5 -5.117188 17.378906 -2.339844 12.980469 -2.339844 C 8.082031 -2.339844 4.617188 -5.867188 4.617188 -10.921875 C 4.617188 -15.972656 8.050781 -19.5 12.949219 -19.5 C 16.316406 -19.5 19 -17.847656 20.375 -15.039062 L 23.367188 -15.039062 C 21.964844 -19.34375 17.847656 -22.246094 12.855469 -22.246094 C 6.457031 -22.246094 1.808594 -17.472656 1.808594 -10.921875 C 1.808594 -4.335938 6.488281 0.40625 12.917969 0.40625 Z M 12.917969 0.40625 "/></g></g></g><g fill="#ffffff" fill-opacity="1"><g transform="translate(142.686179, 238.567338)"><g><path d="M 0.53125 0 L 3.464844 0 L 5.460938 -4.960938 L 16.097656 -4.960938 L 18.160156 0 L 21.058594 0 L 12.074219 -21.839844 L 9.515625 -21.839844 Z M 6.519531 -7.519531 L 10.796875 -18.003906 L 15.070312 -7.519531 Z M 6.519531 -7.519531 "/></g></g></g><g fill="#ffffff" fill-opacity="1"><g transform="translate(164.273351, 238.567338)"><g/></g></g><g fill="#ffffff" fill-opacity="1"><g transform="translate(172.009797, 238.567338)"><g><path d="M 10.453125 0.40625 C 15.226562 0.40625 18.3125 -1.933594 18.3125 -5.742188 C 18.3125 -8.953125 16.160156 -10.890625 10.578125 -12.261719 C 6.332031 -13.292969 4.929688 -14.414062 4.929688 -16.222656 C 4.929688 -18.3125 6.800781 -19.625 9.921875 -19.625 C 13.136719 -19.625 15.132812 -18.003906 15.195312 -15.382812 L 17.910156 -15.382812 C 17.878906 -19.625 14.820312 -22.246094 9.921875 -22.246094 C 5.148438 -22.246094 2.121094 -19.90625 2.121094 -16.222656 C 2.121094 -12.855469 4.523438 -10.980469 9.890625 -9.703125 C 13.820312 -8.765625 15.476562 -7.675781 15.476562 -5.648438 C 15.476562 -3.496094 13.539062 -2.214844 10.453125 -2.214844 C 7.050781 -2.214844 4.679688 -3.898438 4.617188 -6.707031 L 1.871094 -6.707031 C 1.902344 -2.433594 5.242188 0.40625 10.453125 0.40625 Z M 10.453125 0.40625 "/></g></g></g><g fill="#ffffff" fill-opacity="1"><g transform="translate(192.19318, 238.567338)"><g><path d="M 3.183594 0 L 16.785156 0 L 16.785156 -2.558594 L 5.929688 -2.558594 L 5.929688 -9.859375 L 15.664062 -9.859375 L 15.664062 -12.386719 L 5.929688 -12.386719 L 5.929688 -19.28125 L 16.441406 -19.28125 L 16.441406 -21.839844 L 3.183594 -21.839844 Z M 3.183594 0 "/></g></g></g><g fill="#ffffff" fill-opacity="1"><g transform="translate(211.00397, 238.567338)"><g><path d="M 3.183594 0 L 5.898438 0 L 5.898438 -17.097656 L 17.972656 0 L 20.53125 0 L 20.53125 -21.839844 L 17.847656 -21.839844 L 17.847656 -4.742188 L 5.773438 -21.839844 L 3.183594 -21.839844 Z M 3.183594 0 "/></g></g></g><g fill="#ffffff" fill-opacity="1"><g transform="translate(234.71243, 238.567338)"><g><path d="M 10.453125 0.40625 C 15.226562 0.40625 18.3125 -1.933594 18.3125 -5.742188 C 18.3125 -8.953125 16.160156 -10.890625 10.578125 -12.261719 C 6.332031 -13.292969 4.929688 -14.414062 4.929688 -16.222656 C 4.929688 -18.3125 6.800781 -19.625 9.921875 -19.625 C 13.136719 -19.625 15.132812 -18.003906 15.195312 -15.382812 L 17.910156 -15.382812 C 17.878906 -19.625 14.820312 -22.246094 9.921875 -22.246094 C 5.148438 -22.246094 2.121094 -19.90625 2.121094 -16.222656 C 2.121094 -12.855469 4.523438 -10.980469 9.890625 -9.703125 C 13.820312 -8.765625 15.476562 -7.675781 15.476562 -5.648438 C 15.476562 -3.496094 13.539062 -2.214844 10.453125 -2.214844 C 7.050781 -2.214844 4.679688 -3.898438 4.617188 -6.707031 L 1.871094 -6.707031 C 1.902344 -2.433594 5.242188 0.40625 10.453125 0.40625 Z M 10.453125 0.40625 "/></g></g></g><g fill="#ffffff" fill-opacity="1"><g transform="translate(254.895813, 238.567338)"><g><path d="M 3.183594 0 L 16.785156 0 L 16.785156 -2.558594 L 5.929688 -2.558594 L 5.929688 -9.859375 L 15.664062 -9.859375 L 15.664062 -12.386719 L 5.929688 -12.386719 L 5.929688 -19.28125 L 16.441406 -19.28125 L 16.441406 -21.839844 L 3.183594 -21.839844 Z M 3.183594 0 "/></g></g></g><g fill="#ffffff" fill-opacity="1"><g transform="translate(273.706591, 238.567338)"><g/></g></g><g fill="#ffffff" fill-opacity="1"><g transform="translate(281.443025, 238.567338)"><g><path d="M 0.53125 0 L 3.464844 0 L 5.460938 -4.960938 L 16.097656 -4.960938 L 18.160156 0 L 21.058594 0 L 12.074219 -21.839844 L 9.515625 -21.839844 Z M 6.519531 -7.519531 L 10.796875 -18.003906 L 15.070312 -7.519531 Z M 6.519531 -7.519531 "/></g></g></g><g fill="#ffffff" fill-opacity="1"><g transform="translate(303.030197, 238.567338)"><g><path d="M 3.183594 0 L 5.929688 0 L 5.929688 -21.839844 L 3.183594 -21.839844 Z M 3.183594 0 "/></g></g></g><g fill="#ffffff" fill-opacity="1"><g transform="translate(312.140609, 238.567338)"><g/></g></g></svg>