<svg xmlns="http://www.w3.org/2000/svg" xmlns:xlink="http://www.w3.org/1999/xlink" width="500" zoomAndPan="magnify" viewBox="0 0 375 374.999991" height="500" preserveAspectRatio="xMidYMid meet" version="1.0"><defs><g/><clipPath id="3bfbabf0eb"><path d="M 138.222656 111.804688 L 236.773438 111.804688 L 236.773438 198.804688 L 138.222656 198.804688 Z M 138.222656 111.804688 " clip-rule="nonzero"/></clipPath></defs><g clip-path="url(#3bfbabf0eb)"><path fill="#1264ab" d="M 233.746094 177.304688 C 233.5625 177.488281 233.0625 177.070312 232.796875 177.304688 C 232.457031 177.601562 233.054688 178.300781 233.214844 178.480469 C 232.53125 178.480469 231.464844 177.953125 230.894531 177.640625 C 231.523438 177.105469 232.660156 176.636719 233.371094 176.039062 C 233.363281 176.421875 233.964844 177.085938 233.746094 177.304688 Z M 217.925781 181.003906 C 214.144531 181.136719 201.382812 182.523438 199.171875 181.347656 C 197.5 180.457031 196.050781 178.207031 195.144531 176.664062 C 193.039062 173.078125 191.855469 167.835938 193.628906 163.996094 C 195.554688 159.824219 198.136719 160.742188 196.722656 153.449219 C 198.472656 156.777344 200.226562 160.105469 201.972656 163.4375 C 203.433594 166.214844 204.632812 169.9375 207.132812 172.027344 C 207.890625 172.664062 208.746094 173.203125 209.65625 173.6875 C 211.148438 174.519531 220.375 179.605469 221.886719 180.425781 C 220.367188 180.585938 219.449219 180.921875 217.925781 181.003906 Z M 178.46875 176.785156 C 177.777344 178.386719 176.589844 180.652344 174.828125 181.394531 C 172.855469 182.226562 157.398438 181.171875 152.011719 180.597656 C 155.1875 178.878906 158.332031 177.183594 161.382812 175.269531 C 163.996094 173.636719 166.828125 171.988281 168.835938 169.679688 C 172.65625 165.289062 173.398438 159.265625 175.566406 154.128906 C 173.617188 161.554688 177.695312 161.445312 178.734375 164.726562 C 179.957031 168.585938 180.066406 173.082031 178.46875 176.785156 Z M 141.78125 178.804688 C 141.941406 178.625 142.539062 177.925781 142.199219 177.628906 C 141.933594 177.394531 141.433594 177.8125 141.25 177.628906 C 141.027344 177.410156 141.628906 176.746094 141.621094 176.363281 C 142.332031 176.960938 143.472656 177.429688 144.101562 177.964844 C 143.527344 178.277344 142.464844 178.804688 141.78125 178.804688 Z M 236.421875 176.679688 C 236.269531 176.199219 235.558594 173.554688 234.847656 174.023438 C 234.214844 174.4375 235.644531 176.503906 234.925781 176.792969 C 234.648438 176.902344 234.207031 175.695312 233.648438 175.773438 C 233.710938 175.703125 233.769531 175.632812 233.816406 175.558594 C 234.84375 173.960938 231.121094 176.066406 230.753906 176.277344 C 229.308594 177.109375 227.140625 179.226562 225.457031 178.273438 C 224.175781 177.546875 220.230469 175.179688 217.78125 173.695312 C 215.753906 172.449219 213.53125 171.148438 211.816406 169.636719 C 209.097656 167.234375 207.746094 164.402344 206.6875 161.089844 C 205.382812 156.996094 204.171875 152.875 202.828125 148.796875 C 202.292969 147.171875 201.539062 145.757812 200.351562 144.625 C 199.777344 143.953125 198.953125 143.457031 198.027344 143.054688 C 197.703125 142.902344 195.828125 142.257812 195.222656 142.070312 C 193.378906 141.503906 191.984375 140.859375 190.570312 139.542969 C 189.449219 138.496094 188.824219 136.746094 189.703125 135.421875 C 190.804688 133.765625 191.765625 132.296875 192.484375 130.4375 C 193.480469 131.226562 194.121094 127.515625 194.171875 127.03125 C 194.253906 126.210938 194.730469 125.5625 194.980469 124.777344 C 195.253906 123.914062 195.273438 123.054688 195.160156 122.164062 C 194.941406 120.445312 194.25 118.835938 192.984375 117.5625 C 192.386719 116.964844 191.675781 116.355469 190.917969 115.9375 C 190.230469 115.554688 189.382812 115.605469 189.367188 114.574219 C 189.355469 114.144531 189.019531 112.054688 186.175781 111.804688 C 183.328125 112.054688 182.984375 114.070312 182.984375 114.574219 C 182.984375 115.558594 182.117188 115.554688 181.429688 115.9375 C 180.675781 116.355469 179.960938 116.964844 179.363281 117.5625 C 178.097656 118.835938 177.40625 120.445312 177.1875 122.164062 C 177.074219 123.054688 177.09375 123.914062 177.367188 124.777344 C 177.617188 125.5625 178.097656 126.210938 178.179688 127.03125 C 178.226562 127.515625 178.871094 131.226562 179.863281 130.4375 C 180.582031 132.296875 181.542969 133.765625 182.644531 135.421875 C 183.527344 136.746094 182.898438 138.496094 181.777344 139.542969 C 180.367188 140.859375 178.785156 141.539062 176.914062 142.03125 C 175.109375 142.507812 172.710938 143.414062 171.582031 144.726562 L 171.589844 144.726562 C 171.3125 145.023438 171.058594 145.363281 170.839844 145.757812 C 168.992188 149.074219 168.730469 153.496094 167.96875 157.140625 C 167.554688 159.117188 167.140625 161.09375 166.738281 163.074219 C 166.355469 164.949219 166.175781 166.292969 164.5 167.503906 C 161.253906 169.851562 158.015625 172.195312 154.808594 174.585938 C 153.089844 175.863281 151.410156 177.535156 149.539062 178.597656 C 147.855469 179.550781 145.6875 177.433594 144.242188 176.601562 C 143.875 176.390625 140.152344 174.285156 141.179688 175.882812 C 141.226562 175.957031 141.285156 176.027344 141.347656 176.097656 C 140.789062 176.019531 140.34375 177.226562 140.070312 177.117188 C 139.351562 176.828125 140.78125 174.761719 140.148438 174.347656 C 139.4375 173.878906 138.726562 176.523438 138.574219 177.003906 C 137.917969 179.070312 138.183594 180.125 139.328125 181.980469 C 139.6875 182.558594 140.007812 182.707031 140.035156 183.292969 C 140.085938 184.347656 139.59375 185.347656 139.765625 186.460938 C 140.039062 188.234375 141.167969 189.675781 142.679688 190.71875 C 146.773438 193.542969 152.359375 193.808594 157.230469 194.082031 C 163.019531 194.402344 168.8125 194.644531 174.59375 195.050781 C 177.199219 195.230469 179.816406 195.410156 182.386719 195.867188 C 185.058594 196.34375 187.648438 197.148438 190.324219 197.613281 C 192.707031 198.023438 195.214844 197.648438 197.53125 198.179688 C 198.492188 198.402344 202.871094 199.898438 201.285156 197.492188 C 200.164062 195.789062 197.640625 195.441406 195.75 195.226562 C 193.398438 194.957031 192.226562 194.269531 190.828125 192.472656 C 190.222656 191.695312 189.410156 190.503906 188.417969 190.109375 C 187.03125 189.554688 185.597656 190.589844 184.421875 191.160156 C 181.609375 192.527344 178.90625 192.441406 175.8125 191.875 C 169.695312 190.757812 163.855469 187.683594 158.160156 185.390625 C 161.785156 184.695312 163.625 186.472656 166.605469 187.960938 C 169.613281 189.464844 172.945312 190.273438 176.234375 191.03125 C 179.59375 191.804688 182.050781 191.546875 185.140625 190.117188 C 187.6875 188.9375 189.414062 188.820312 191.027344 191.191406 C 192.433594 190.054688 194.125 187.875 196.214844 188.636719 C 198.417969 189.4375 199.394531 191.574219 202.058594 191.414062 C 204.742188 191.257812 207.476562 189.898438 209.9375 188.972656 C 212.570312 187.984375 215.078125 187.128906 217.839844 186.535156 C 214.441406 188.253906 210.59375 189.402344 207 190.71875 C 205.359375 191.324219 203.546875 192.191406 201.78125 192.378906 C 199.976562 192.566406 198.886719 191.757812 197.59375 190.726562 C 196.390625 189.761719 195.261719 188.839844 193.832031 189.855469 C 192.929688 190.496094 191.488281 191.480469 191.953125 192.628906 C 192.488281 193.953125 194.128906 194.066406 195.394531 194.191406 C 197.382812 194.390625 199.375 194.578125 201.371094 194.699219 C 205.394531 194.9375 216.996094 193.910156 220.582031 193.585938 C 224.640625 193.148438 228.992188 192.6875 232.316406 190.394531 C 233.828125 189.351562 234.957031 187.910156 235.230469 186.136719 C 235.402344 185.023438 234.910156 184.023438 234.960938 182.96875 C 234.984375 182.382812 235.308594 182.234375 235.664062 181.65625 C 236.8125 179.800781 237.078125 178.746094 236.421875 176.679688 " fill-opacity="1" fill-rule="nonzero"/></g><g fill="#ffffff" fill-opacity="1"><g transform="translate(55.414301, 236.098053)"><g><path d="M 0.253906 -18.5625 L 0.253906 -17.542969 L 0.765625 -17.542969 C 1.625 -17.542969 2.386719 -17.097656 2.832031 -16.335938 L 7.769531 -7.417969 L 7.769531 -1.878906 C 7.769531 -1.402344 7.386719 -1.019531 6.910156 -1.019531 L 6.433594 -1.019531 L 6.433594 0 L 12.925781 0 L 12.925781 -1.019531 L 12.480469 -1.019531 C 12.003906 -1.019531 11.621094 -1.402344 11.621094 -1.878906 L 11.621094 -7.417969 L 16.589844 -16.398438 C 16.972656 -17.097656 17.703125 -17.542969 18.5 -17.542969 L 19.105469 -17.542969 L 19.105469 -18.5625 L 14.390625 -18.5625 L 14.390625 -17.542969 L 15.285156 -17.542969 C 15.539062 -17.542969 15.855469 -17.226562 15.667969 -16.90625 L 11.273438 -8.980469 L 6.941406 -16.90625 C 6.75 -17.226562 7.070312 -17.542969 7.324219 -17.542969 L 8.214844 -17.542969 L 8.214844 -18.5625 Z M 0.253906 -18.5625 "/></g></g></g><g fill="#ffffff" fill-opacity="1"><g transform="translate(79.517396, 236.098053)"><g><path d="M 10.984375 -17.925781 C 14.996094 -17.925781 16.558594 -14.074219 16.558594 -9.296875 C 16.558594 -4.523438 14.996094 -0.636719 10.984375 -0.636719 C 6.972656 -0.636719 5.414062 -4.523438 5.414062 -9.296875 C 5.414062 -14.074219 6.972656 -17.925781 10.984375 -17.925781 Z M 10.984375 -18.976562 C 4.585938 -18.976562 1.558594 -14.648438 1.558594 -9.296875 C 1.558594 -3.949219 4.585938 0.382812 10.984375 0.382812 C 17.386719 0.382812 20.410156 -3.949219 20.410156 -9.296875 C 20.410156 -14.648438 17.386719 -18.976562 10.984375 -18.976562 Z M 10.984375 -18.976562 "/></g></g></g><g fill="#ffffff" fill-opacity="1"><g transform="translate(106.231265, 236.098053)"><g><path d="M 11.050781 -18.976562 C 4.585938 -18.976562 1.558594 -14.648438 1.558594 -9.296875 C 1.558594 -3.949219 4.554688 0.382812 10.824219 0.382812 C 16.304688 0.382812 18.53125 -2.644531 18.53125 -2.644531 L 18.53125 -9.394531 L 12.863281 -9.394531 L 12.863281 -8.34375 L 13.820312 -8.34375 C 14.296875 -8.34375 14.679688 -7.992188 14.679688 -7.515625 L 14.679688 -1.402344 C 13.914062 -0.957031 12.960938 -0.636719 11.8125 -0.636719 C 7.800781 -0.636719 5.414062 -4.074219 5.414062 -9.296875 C 5.414062 -14.519531 7.578125 -17.925781 12.003906 -17.925781 C 14.710938 -17.925781 17.003906 -16.460938 17.480469 -14.042969 L 17.511719 -13.753906 L 18.53125 -13.753906 L 18.53125 -15.921875 C 18.53125 -15.921875 16.367188 -18.976562 11.050781 -18.976562 Z M 11.050781 -18.976562 "/></g></g></g><g fill="#ffffff" fill-opacity="1"><g transform="translate(131.385036, 236.098053)"><g><path d="M 9.074219 -18.976562 L 2.386719 -2.070312 C 2.132812 -1.433594 1.496094 -1.050781 0.828125 -1.050781 L 0.253906 -1.050781 L 0.253906 0 L 4.554688 0 L 4.554688 -1.050781 L 3.695312 -1.050781 C 3.4375 -1.050781 3.183594 -1.304688 3.3125 -1.625 L 4.839844 -5.605469 L 11.238281 -5.605469 L 12.738281 -1.625 C 12.863281 -1.304688 12.609375 -1.050781 12.355469 -1.050781 L 11.558594 -1.050781 L 11.558594 0 L 18.914062 0 L 18.914062 -1.050781 L 18.308594 -1.050781 C 17.640625 -1.050781 17.003906 -1.433594 16.75 -2.070312 L 10.09375 -18.976562 Z M 5.222656 -6.625 L 8.054688 -13.976562 L 10.859375 -6.625 Z M 5.222656 -6.625 "/></g></g></g><g fill="#ffffff" fill-opacity="1"><g transform="translate(155.297103, 236.098053)"><g/></g></g><g fill="#ffffff" fill-opacity="1"><g transform="translate(167.524359, 236.098053)"><g><path d="M 7.578125 -18.976562 C 3.695312 -18.976562 1.242188 -16.84375 1.242188 -13.53125 C 1.242188 -11.496094 2.230469 -10.15625 4.554688 -8.980469 L 9.296875 -6.558594 C 10.890625 -5.730469 11.464844 -4.777344 11.464844 -3.628906 C 11.464844 -1.75 10.0625 -0.636719 7.800781 -0.636719 C 4.933594 -0.636719 2.546875 -2.578125 2.292969 -4.554688 L 2.261719 -4.808594 L 1.242188 -4.808594 L 1.242188 -2.644531 C 1.242188 -2.644531 3.246094 0.382812 8.46875 0.382812 C 12.546875 0.382812 15.285156 -1.625 15.285156 -4.933594 C 15.285156 -6.910156 14.359375 -8.34375 12.226562 -9.425781 L 7.195312 -12.003906 C 5.730469 -12.769531 5.09375 -13.753906 5.09375 -15.125 C 5.09375 -16.972656 6.496094 -17.925781 8.40625 -17.925781 C 11.144531 -17.925781 13.117188 -15.953125 13.375 -14.042969 L 13.40625 -13.753906 L 14.425781 -13.753906 L 14.425781 -15.984375 C 14.425781 -15.984375 12.449219 -18.976562 7.578125 -18.976562 Z M 7.578125 -18.976562 "/></g></g></g><g fill="#ffffff" fill-opacity="1"><g transform="translate(188.79381, 236.098053)"><g><path d="M 10.761719 -9.808594 L 6.210938 -9.808594 L 6.210938 -17.542969 L 12.863281 -17.542969 C 13.753906 -17.542969 14.519531 -16.84375 14.582031 -15.984375 L 14.582031 -15.347656 L 15.601562 -15.347656 L 15.601562 -18.5625 L 1.019531 -18.5625 L 1.019531 -17.542969 L 1.496094 -17.542969 C 1.972656 -17.542969 2.355469 -17.164062 2.355469 -16.683594 L 2.355469 -1.878906 C 2.355469 -1.402344 1.972656 -1.050781 1.496094 -1.050781 L 1.019531 -1.050781 L 1.019531 0 L 15.601562 0 L 15.601562 -3.214844 L 14.582031 -3.214844 L 14.582031 -2.546875 C 14.519531 -1.6875 13.753906 -1.050781 12.863281 -1.050781 L 6.210938 -1.050781 L 6.210938 -8.789062 L 10.761719 -8.789062 C 11.429688 -8.789062 11.941406 -8.246094 11.941406 -7.578125 L 11.941406 -7.101562 L 12.992188 -7.101562 L 12.992188 -11.464844 L 11.941406 -11.464844 L 11.941406 -10.984375 C 11.941406 -10.316406 11.429688 -9.808594 10.761719 -9.808594 Z M 10.761719 -9.808594 "/></g></g></g><g fill="#ffffff" fill-opacity="1"><g transform="translate(209.585676, 236.098053)"><g><path d="M 1.019531 -18.5625 L 1.019531 -17.542969 L 1.496094 -17.542969 C 1.972656 -17.542969 2.355469 -17.164062 2.355469 -16.683594 L 2.355469 -1.878906 C 2.355469 -1.402344 1.972656 -1.050781 1.496094 -1.050781 L 1.019531 -1.050781 L 1.019531 0 L 4.710938 0 L 4.710938 -1.050781 L 4.234375 -1.050781 C 3.757812 -1.050781 3.375 -1.402344 3.375 -1.878906 L 3.375 -15.921875 L 15.09375 0.253906 L 16.113281 0.253906 L 16.113281 -16.683594 C 16.113281 -17.164062 16.492188 -17.542969 16.972656 -17.542969 L 17.449219 -17.542969 L 17.449219 -18.5625 L 13.789062 -18.5625 L 13.789062 -17.542969 L 14.234375 -17.542969 C 14.710938 -17.542969 15.09375 -17.164062 15.09375 -16.683594 L 15.09375 -5.984375 L 6.878906 -17.671875 C 6.464844 -18.246094 5.796875 -18.5625 5.09375 -18.5625 Z M 1.019531 -18.5625 "/></g></g></g><g fill="#ffffff" fill-opacity="1"><g transform="translate(232.829127, 236.098053)"><g><path d="M 7.578125 -18.976562 C 3.695312 -18.976562 1.242188 -16.84375 1.242188 -13.53125 C 1.242188 -11.496094 2.230469 -10.15625 4.554688 -8.980469 L 9.296875 -6.558594 C 10.890625 -5.730469 11.464844 -4.777344 11.464844 -3.628906 C 11.464844 -1.75 10.0625 -0.636719 7.800781 -0.636719 C 4.933594 -0.636719 2.546875 -2.578125 2.292969 -4.554688 L 2.261719 -4.808594 L 1.242188 -4.808594 L 1.242188 -2.644531 C 1.242188 -2.644531 3.246094 0.382812 8.46875 0.382812 C 12.546875 0.382812 15.285156 -1.625 15.285156 -4.933594 C 15.285156 -6.910156 14.359375 -8.34375 12.226562 -9.425781 L 7.195312 -12.003906 C 5.730469 -12.769531 5.09375 -13.753906 5.09375 -15.125 C 5.09375 -16.972656 6.496094 -17.925781 8.40625 -17.925781 C 11.144531 -17.925781 13.117188 -15.953125 13.375 -14.042969 L 13.40625 -13.753906 L 14.425781 -13.753906 L 14.425781 -15.984375 C 14.425781 -15.984375 12.449219 -18.976562 7.578125 -18.976562 Z M 7.578125 -18.976562 "/></g></g></g><g fill="#ffffff" fill-opacity="1"><g transform="translate(254.098566, 236.098053)"><g><path d="M 10.761719 -9.808594 L 6.210938 -9.808594 L 6.210938 -17.542969 L 12.863281 -17.542969 C 13.753906 -17.542969 14.519531 -16.84375 14.582031 -15.984375 L 14.582031 -15.347656 L 15.601562 -15.347656 L 15.601562 -18.5625 L 1.019531 -18.5625 L 1.019531 -17.542969 L 1.496094 -17.542969 C 1.972656 -17.542969 2.355469 -17.164062 2.355469 -16.683594 L 2.355469 -1.878906 C 2.355469 -1.402344 1.972656 -1.050781 1.496094 -1.050781 L 1.019531 -1.050781 L 1.019531 0 L 15.601562 0 L 15.601562 -3.214844 L 14.582031 -3.214844 L 14.582031 -2.546875 C 14.519531 -1.6875 13.753906 -1.050781 12.863281 -1.050781 L 6.210938 -1.050781 L 6.210938 -8.789062 L 10.761719 -8.789062 C 11.429688 -8.789062 11.941406 -8.246094 11.941406 -7.578125 L 11.941406 -7.101562 L 12.992188 -7.101562 L 12.992188 -11.464844 L 11.941406 -11.464844 L 11.941406 -10.984375 C 11.941406 -10.316406 11.429688 -9.808594 10.761719 -9.808594 Z M 10.761719 -9.808594 "/></g></g></g><g fill="#ffffff" fill-opacity="1"><g transform="translate(274.890421, 236.098053)"><g/></g></g><g fill="#ffffff" fill-opacity="1"><g transform="translate(287.117677, 236.098053)"><g><path d="M 9.074219 -18.976562 L 2.386719 -2.070312 C 2.132812 -1.433594 1.496094 -1.050781 0.828125 -1.050781 L 0.253906 -1.050781 L 0.253906 0 L 4.554688 0 L 4.554688 -1.050781 L 3.695312 -1.050781 C 3.4375 -1.050781 3.183594 -1.304688 3.3125 -1.625 L 4.839844 -5.605469 L 11.238281 -5.605469 L 12.738281 -1.625 C 12.863281 -1.304688 12.609375 -1.050781 12.355469 -1.050781 L 11.558594 -1.050781 L 11.558594 0 L 18.914062 0 L 18.914062 -1.050781 L 18.308594 -1.050781 C 17.640625 -1.050781 17.003906 -1.433594 16.75 -2.070312 L 10.09375 -18.976562 Z M 5.222656 -6.625 L 8.054688 -13.976562 L 10.859375 -6.625 Z M 5.222656 -6.625 "/></g></g></g><g fill="#ffffff" fill-opacity="1"><g transform="translate(311.029745, 236.098053)"><g><path d="M 1.019531 -18.59375 L 1.019531 -17.542969 L 1.496094 -17.542969 C 1.972656 -17.542969 2.355469 -17.164062 2.355469 -16.683594 L 2.355469 -1.878906 C 2.355469 -1.402344 1.972656 -1.050781 1.496094 -1.050781 L 1.019531 -1.050781 L 1.019531 0 L 7.515625 0 L 7.515625 -1.050781 L 7.070312 -1.050781 C 6.589844 -1.050781 6.210938 -1.402344 6.210938 -1.878906 L 6.210938 -16.683594 C 6.210938 -17.164062 6.589844 -17.542969 7.070312 -17.542969 L 7.515625 -17.542969 L 7.515625 -18.5625 Z M 1.019531 -18.59375 "/></g></g></g></svg>