<svg xmlns="http://www.w3.org/2000/svg" xmlns:xlink="http://www.w3.org/1999/xlink" width="500" zoomAndPan="magnify" viewBox="0 0 375 374.999991" height="500" preserveAspectRatio="xMidYMid meet" version="1.0"><defs><g/><clipPath id="a279ae6d64"><path d="M 124 97 L 256 97 L 256 252.316406 L 124 252.316406 Z M 124 97 " clip-rule="nonzero"/></clipPath></defs><g clip-path="url(#a279ae6d64)"><path fill="#2b92df" d="M 255.144531 110.078125 C 255.144531 109.792969 253.796875 109.359375 253.617188 110.929688 C 253.4375 112.503906 253.488281 113.480469 253.488281 113.480469 C 253.488281 113.480469 251.875 113.636719 250.480469 114.054688 C 250.480469 113.84375 250.382812 112.644531 249.660156 113.089844 C 248.453125 113.835938 247.96875 115.476562 247.894531 116.285156 C 247.679688 118.570312 245.671875 120.621094 246.128906 121.765625 C 245.859375 122.175781 244.207031 123.277344 243.523438 123.65625 C 242.769531 124.074219 233.425781 126.761719 231.070312 127.652344 C 228.714844 128.542969 225.789062 129.578125 225.789062 129.578125 C 225.789062 129.578125 220.972656 127.6875 219.183594 127.257812 C 217.402344 126.832031 211.617188 125.476562 211.617188 125.476562 C 211.617188 125.476562 204.050781 120.234375 202.839844 120.003906 C 201.453125 119.746094 197.058594 119.738281 194.101562 120.0625 C 193.410156 120.140625 192.75 119.761719 192.484375 119.117188 C 192.140625 118.300781 191.800781 117.230469 192.015625 116.671875 C 192.847656 114.515625 194.804688 110.984375 194.945312 108.117188 C 195.015625 106.648438 195.707031 97.722656 188.121094 97.722656 C 180.472656 97.722656 181.316406 106.679688 181.296875 108.117188 C 181.253906 111.15625 183.136719 114.375 184.226562 116.671875 C 184.425781 117.097656 184.304688 117.996094 184.128906 118.773438 C 183.945312 119.570312 183.179688 120.09375 182.375 119.976562 C 180.28125 119.671875 177.308594 119.230469 175.140625 119.941406 C 171.289062 121.210938 165.851562 124.683594 165.023438 124.902344 C 164.007812 125.167969 159.617188 125.703125 158.011719 126.21875 C 156.699219 126.644531 151.996094 128.273438 151.425781 128.273438 C 150.855469 128.273438 136.8125 123.457031 133.027344 119.9375 C 132.902344 119.117188 132.742188 113.230469 131.957031 111.660156 C 131.175781 110.089844 130.175781 110.945312 130.175781 111.304688 C 130.175781 111.660156 129.316406 111.164062 128.960938 111.164062 C 128.605469 111.164062 127.390625 111.875 127.390625 111.875 C 127.390625 111.875 126.960938 110.589844 127.390625 110.164062 C 127.820312 109.734375 128.535156 108.808594 128.03125 108.304688 C 127.535156 107.808594 126.890625 108.699219 126.890625 108.699219 C 126.890625 108.699219 126.710938 108.152344 126.496094 108.152344 C 126.285156 108.152344 125.605469 108.269531 125.605469 108.875 C 125.605469 109.480469 125.140625 110.304688 125.140625 110.304688 C 125.140625 110.304688 124.570312 110.265625 124.425781 110.695312 C 124.28125 111.125 125.320312 115.261719 125.460938 115.691406 C 125.605469 116.121094 125.5 116.832031 125.5 117.082031 C 125.5 117.332031 127.03125 118.6875 127.355469 119.007812 C 127.675781 119.332031 129.566406 121.117188 129.746094 121.507812 C 129.925781 121.898438 130.585938 122.773438 130.851562 123.042969 C 131.121094 123.308594 135.761719 125.914062 136.277344 126.433594 C 136.792969 126.949219 147.625 133 147.875 133.25 C 148.125 133.5 149.375 133.925781 151.015625 133.925781 C 152.65625 133.925781 157.347656 133.859375 161.167969 133.515625 C 163.691406 133.292969 169.394531 130.964844 169.964844 130.789062 C 170.539062 130.609375 172.785156 130.644531 173.390625 132.464844 C 174 134.285156 176.355469 140.742188 176.746094 144.777344 C 177.140625 148.808594 176.710938 153.234375 176.425781 154.304688 C 176.140625 155.375 172.429688 164.011719 172.105469 165.9375 C 171.785156 167.863281 171.464844 174.324219 173.035156 179.75 C 174.605469 185.171875 178.246094 196.984375 179.066406 201.160156 C 179.886719 205.335938 180.707031 208.300781 180.707031 209.867188 C 180.707031 211.4375 180.5625 220.71875 181.5625 223.140625 C 182.5625 225.570312 187.128906 237.84375 187.703125 239.84375 C 188.273438 241.84375 188.84375 243.839844 186.417969 246.269531 C 183.988281 248.695312 179.707031 250.40625 180.136719 250.835938 C 180.5625 251.265625 181.707031 252.265625 183.847656 252.265625 C 185.988281 252.265625 191.269531 249.980469 192.839844 249.269531 C 194.410156 248.554688 194.980469 248.269531 194.980469 245.558594 C 194.980469 242.84375 191.984375 237.847656 191.984375 235.851562 C 191.984375 233.851562 191.414062 226.714844 191.414062 224.574219 C 191.414062 222.429688 189.554688 214.867188 189.554688 214.867188 L 189.128906 209.300781 C 189.128906 209.300781 193.054688 206.945312 193.339844 205.304688 C 193.625 203.660156 193.054688 198.238281 193.839844 195.808594 C 194.621094 193.382812 196.976562 190.597656 203.402344 187.601562 C 209.824219 184.605469 219.960938 178.609375 219.960938 178.609375 C 219.960938 178.609375 225.171875 176.179688 225.171875 171.972656 C 225.171875 167.761719 222.175781 165.121094 215.039062 164.546875 C 207.898438 163.976562 206.046875 164.261719 205.472656 164.261719 C 204.902344 164.261719 201.90625 164.546875 199.835938 159.050781 C 197.765625 153.554688 196.984375 150.128906 197.550781 146.488281 C 198.121094 142.847656 199.695312 136.210938 201.191406 133.78125 C 202.691406 131.355469 203.792969 131.164062 206.132812 131.75 C 207.203125 132.015625 210.886719 133.53125 212.558594 134.105469 C 214.75 134.855469 220.1875 134.644531 221.035156 134.78125 C 222.78125 135.066406 225.085938 136.085938 226.261719 135.976562 C 226.828125 135.925781 236.164062 131.640625 239.964844 129.660156 C 243.371094 127.882812 246.835938 126.265625 247.296875 125.804688 C 247.761719 125.339844 253.472656 120.96875 253.863281 120.578125 C 254.253906 120.1875 255.148438 119.9375 255.148438 118.652344 C 255.15625 117.375 255.144531 110.363281 255.144531 110.078125 Z M 202.769531 178.042969 C 198.84375 182.824219 193.203125 185.894531 191.5625 186.394531 C 190.707031 185.824219 188.710938 186.535156 188.710938 186.535156 C 188.710938 186.535156 189.136719 180.328125 188.710938 177.542969 C 194.628906 179.828125 202.339844 178.113281 202.769531 178.042969 Z M 202.769531 178.042969 " fill-opacity="1" fill-rule="nonzero"/></g><path fill="#000000" d="M 207.671875 144.804688 C 207.957031 151.023438 208.828125 157.597656 210.894531 162.210938 C 215.601562 157.367188 217.710938 143.507812 206.78125 134.277344 C 196.925781 145.050781 200.625 156.605469 207.617188 160.84375 C 206.558594 156.390625 206.433594 150.011719 207.671875 144.804688 Z M 207.671875 144.804688 " fill-opacity="1" fill-rule="nonzero"/><path fill="#000000" d="M 252.289062 177.714844 C 246.855469 180.945312 241.382812 184.878906 238.238281 188.9375 C 244.835938 190.835938 258.257812 186.089844 261.296875 171.871094 C 246.921875 168.203125 238.335938 177.050781 237.890625 185.351562 C 241.375 182.265625 247.03125 179.101562 252.289062 177.714844 Z M 252.289062 177.714844 " fill-opacity="1" fill-rule="nonzero"/><path fill="#ffffff" d="M 232.34375 173.804688 C 231.355469 179.113281 230.789062 184.839844 231.621094 189.144531 C 236.554688 185.984375 241.082031 174.699219 233.675781 164.738281 C 223.21875 171.886719 224.054688 182.378906 229.125 187.34375 C 229.109375 183.367188 230.269531 177.957031 232.34375 173.804688 Z M 232.34375 173.804688 " fill-opacity="1" fill-rule="nonzero"/><path fill="#ffffff" d="M 213.230469 199.585938 C 206.0625 206 199.03125 213.464844 195.515625 220.445312 C 205.921875 221.355469 224.585938 210.359375 224.976562 188.238281 C 202.441406 186.945312 192.203125 202.664062 193.957031 215.1875 C 198.257812 209.566406 205.78125 203.1875 213.230469 199.585938 Z M 213.230469 199.585938 " fill-opacity="1" fill-rule="nonzero"/><path fill="#ffffff" d="M 236.3125 147.128906 C 228.65625 151.660156 220.941406 157.171875 216.503906 162.878906 C 225.78125 165.570312 244.683594 158.9375 249.003906 138.9375 C 228.792969 133.730469 216.6875 146.152344 216.03125 157.828125 C 220.941406 153.5 228.910156 149.0625 236.3125 147.128906 Z M 236.3125 147.128906 " fill-opacity="1" fill-rule="nonzero"/><path fill="#ffffff" d="M 262.132812 151.453125 C 260.234375 156.902344 258.710938 162.863281 258.894531 167.546875 C 264.617188 165.003906 271.222656 153.808594 265.003906 142.082031 C 252.796875 147.949219 251.988281 159.171875 256.546875 165.238281 C 257.175781 161.039062 259.269531 155.507812 262.132812 151.453125 Z M 262.132812 151.453125 " fill-opacity="1" fill-rule="nonzero"/><path fill="#ffffff" d="M 262.875 127.878906 C 261.921875 132.679688 261.351562 137.859375 262.0625 141.769531 C 266.566406 138.953125 270.78125 128.777344 264.171875 119.675781 C 254.625 126.042969 255.277344 135.5625 259.816406 140.109375 C 259.847656 136.515625 260.953125 131.621094 262.875 127.878906 Z M 262.875 127.878906 " fill-opacity="1" fill-rule="nonzero"/><path fill="#ffffff" d="M 180.71875 67.601562 C 179.910156 71.675781 179.429688 76.074219 180.027344 79.398438 C 183.855469 77.007812 187.433594 68.367188 181.820312 60.636719 C 173.714844 66.042969 174.265625 74.125 178.121094 77.988281 C 178.148438 74.933594 179.085938 70.777344 180.71875 67.601562 Z M 180.71875 67.601562 " fill-opacity="1" fill-rule="nonzero"/><path fill="#ffffff" d="M 216.28125 116.757812 C 210.296875 113.21875 203.617188 110.007812 198.039062 109.113281 C 199.6875 116.480469 211.34375 126.9375 226.667969 122.371094 C 222.632812 106.5625 209.566406 102.945312 201.320312 106.890625 C 206.132812 108.621094 212.171875 112.414062 216.28125 116.757812 Z M 216.28125 116.757812 " fill-opacity="1" fill-rule="nonzero"/><path fill="#ffffff" d="M 247.066406 158.738281 C 243.96875 162.242188 240.992188 166.246094 239.691406 169.820312 C 244.769531 169.667969 253.164062 163.300781 252.101562 152.585938 C 241.140625 153.242188 237.082031 161.414062 238.640625 167.367188 C 240.398438 164.40625 243.671875 160.898438 247.066406 158.738281 Z M 247.066406 158.738281 " fill-opacity="1" fill-rule="nonzero"/><path fill="#ffffff" d="M 254.152344 143.171875 C 251.945312 145.664062 249.832031 148.511719 248.90625 151.050781 C 252.519531 150.945312 258.484375 146.414062 257.730469 138.800781 C 249.9375 139.265625 247.050781 145.074219 248.160156 149.304688 C 249.410156 147.203125 251.738281 144.710938 254.152344 143.171875 Z M 254.152344 143.171875 " fill-opacity="1" fill-rule="nonzero"/><path fill="#ffffff" d="M 153.507812 121.84375 C 150.214844 121.34375 146.679688 121.117188 144.042969 121.714844 C 146.089844 124.691406 153.136719 127.246094 159.121094 122.480469 C 154.5 116.183594 148.054688 116.917969 145.101562 120.140625 C 147.546875 120.050781 150.902344 120.652344 153.507812 121.84375 Z M 153.507812 121.84375 " fill-opacity="1" fill-rule="nonzero"/><path fill="#ffffff" d="M 250.660156 131.9375 C 252.148438 128.894531 253.449219 125.527344 253.671875 122.78125 C 250.15625 123.867188 245.527344 129.929688 248.335938 137.195312 C 255.859375 134.628906 257.113281 128.144531 254.878906 124.292969 C 254.21875 126.691406 252.613281 129.773438 250.660156 131.9375 Z M 250.660156 131.9375 " fill-opacity="1" fill-rule="nonzero"/><path fill="#ffffff" d="M 166.332031 144.273438 C 166.683594 150.339844 166.496094 156.8125 164.957031 161.503906 C 159.898438 157.273438 156.449219 144.027344 166.140625 133.953125 C 176.796875 143.425781 174.371094 155.023438 168 159.84375 C 168.585938 155.414062 168.0625 149.203125 166.332031 144.273438 Z M 166.332031 144.273438 " fill-opacity="1" fill-rule="nonzero"/><path fill="#ffffff" d="M 148.363281 142.308594 C 151.445312 146.132812 154.371094 150.476562 155.566406 154.28125 C 150.25 153.882812 141.75 146.800781 143.378906 135.617188 C 154.84375 136.828125 158.703125 145.59375 156.789062 151.757812 C 155.085938 148.574219 151.816406 144.738281 148.363281 142.308594 Z M 148.363281 142.308594 " fill-opacity="1" fill-rule="nonzero"/><path fill="#ffffff" d="M 212.660156 69.304688 C 214.351562 72.695312 215.84375 76.449219 216.113281 79.519531 C 212.171875 78.339844 206.933594 71.597656 210.003906 63.441406 C 218.445312 66.242188 219.910156 73.488281 217.449219 77.820312 C 216.691406 75.132812 214.863281 71.707031 212.660156 69.304688 Z M 212.660156 69.304688 " fill-opacity="1" fill-rule="nonzero"/><path fill="#ffffff" d="M 168.179688 67.59375 C 169.972656 69.816406 171.679688 72.347656 172.375 74.5625 C 169.277344 74.328125 164.328125 70.203125 165.28125 63.699219 C 171.953125 64.402344 174.203125 69.503906 173.085938 73.09375 C 172.09375 71.242188 170.191406 69.007812 168.179688 67.59375 Z M 168.179688 67.59375 " fill-opacity="1" fill-rule="nonzero"/><path fill="#000000" d="M 163.703125 112.972656 C 169.246094 112.992188 175.128906 113.523438 179.3125 115.183594 C 175.175781 119.554688 162.929688 121.953125 154.300781 112.574219 C 163.519531 103.398438 173.941406 106.253906 177.972656 112.320312 C 173.972656 111.546875 168.289062 111.675781 163.703125 112.972656 Z M 163.703125 112.972656 " fill-opacity="1" fill-rule="nonzero"/><path fill="#ffffff" d="M 141.519531 177.824219 C 143.652344 181.929688 145.542969 186.484375 145.933594 190.222656 C 141.097656 188.859375 134.578125 180.734375 138.171875 170.71875 C 148.527344 173.976562 150.453125 182.789062 147.53125 188.125 C 146.554688 184.863281 144.257812 180.710938 141.519531 177.824219 Z M 141.519531 177.824219 " fill-opacity="1" fill-rule="nonzero"/><path fill="#ffffff" d="M 115.644531 132.222656 C 116.242188 139.496094 116.210938 147.273438 114.5 152.953125 C 108.300781 148.019531 103.773438 132.21875 115.109375 119.839844 C 128.1875 130.898438 125.609375 144.894531 118.109375 150.875 C 118.675781 145.535156 117.867188 138.09375 115.644531 132.222656 Z M 115.644531 132.222656 " fill-opacity="1" fill-rule="nonzero"/><path fill="#ffffff" d="M 229.535156 106.3125 C 235.5 110.660156 241.4375 115.816406 244.65625 120.875 C 236.785156 122.371094 221.691406 115.40625 219.695312 98.554688 C 236.800781 95.839844 245.820312 107.050781 245.445312 116.742188 C 241.730469 112.78125 235.496094 108.492188 229.535156 106.3125 Z M 229.535156 106.3125 " fill-opacity="1" fill-rule="nonzero"/><path fill="#ffffff" d="M 247.191406 95.632812 C 248.972656 101.167969 250.363281 107.207031 250.066406 111.921875 C 244.359375 109.21875 237.980469 97.785156 244.523438 86.128906 C 256.671875 92.332031 257.222656 103.65625 252.484375 109.652344 C 251.957031 105.40625 249.976562 99.785156 247.191406 95.632812 Z M 247.191406 95.632812 " fill-opacity="1" fill-rule="nonzero"/><path fill="#000000" d="M 188.804688 81.554688 C 187.625 87.054688 185.867188 92.789062 183.339844 96.59375 C 179.863281 91.574219 180.042969 78.90625 191.167969 72.296875 C 198.351562 83.371094 193.332031 93.125 186.464844 95.863281 C 188.074219 92.050781 189.132812 86.382812 188.804688 81.554688 Z M 188.804688 81.554688 " fill-opacity="1" fill-rule="nonzero"/><path fill="#ffffff" d="M 149.324219 106.433594 C 143.882812 110.394531 138.464844 115.101562 135.527344 119.71875 C 142.710938 121.082031 156.480469 114.730469 158.300781 99.351562 C 142.699219 96.875 134.46875 107.105469 134.8125 115.945312 C 138.203125 112.332031 143.886719 108.421875 149.324219 106.433594 Z M 149.324219 106.433594 " fill-opacity="1" fill-rule="nonzero"/><path fill="#ffffff" d="M 145.800781 89.964844 C 142.480469 93.402344 139.269531 97.355469 137.777344 100.941406 C 142.964844 101.015625 151.8125 94.890625 151.207031 83.917969 C 139.992188 84.097656 135.492188 92.253906 136.816406 98.394531 C 138.742188 95.449219 142.238281 92.019531 145.800781 89.964844 Z M 145.800781 89.964844 " fill-opacity="1" fill-rule="nonzero"/><path fill="#ffffff" d="M 206.65625 90.132812 C 202.628906 95.144531 198.816406 100.832031 197.261719 105.820312 C 204.222656 105.28125 215.316406 95.988281 213.15625 81.367188 C 198.164062 82.980469 193.136719 94.457031 195.660156 102.519531 C 197.878906 98.347656 202.140625 93.320312 206.65625 90.132812 Z M 206.65625 90.132812 " fill-opacity="1" fill-rule="nonzero"/><path fill="#000000" d="M 260.425781 112.347656 C 259.753906 115.023438 259.289062 117.925781 259.578125 120.148438 C 262.195312 118.691406 264.851562 113.078125 261.386719 107.765625 C 255.835938 111.085938 255.933594 116.460938 258.363281 119.148438 C 258.480469 117.125 259.238281 114.402344 260.425781 112.347656 Z M 260.425781 112.347656 " fill-opacity="1" fill-rule="nonzero"/><path fill="#ffffff" d="M 219.050781 87.3125 C 220.980469 90.328125 223.308594 93.351562 225.664062 95.054688 C 226.613281 91.289062 223.675781 83.78125 215.574219 82.328125 C 213.769531 90.53125 218.933594 95.222656 223.640625 95.316406 C 221.832031 93.402344 219.933594 90.261719 219.050781 87.3125 Z M 219.050781 87.3125 " fill-opacity="1" fill-rule="nonzero"/><path fill="#ffffff" d="M 215.699219 98.574219 C 213.425781 100.128906 211.148438 101.992188 209.890625 103.84375 C 212.816406 104.488281 218.527344 102.054688 219.460938 95.78125 C 213.101562 94.578125 209.609375 98.667969 209.640625 102.292969 C 211.074219 100.855469 213.449219 99.320312 215.699219 98.574219 Z M 215.699219 98.574219 " fill-opacity="1" fill-rule="nonzero"/><path fill="#ffffff" d="M 193.855469 64.613281 C 191.003906 66.5625 188.160156 68.894531 186.582031 71.214844 C 190.246094 72.023438 197.398438 68.972656 198.5625 61.117188 C 190.601562 59.613281 186.230469 64.730469 186.269531 69.269531 C 188.0625 67.46875 191.039062 65.550781 193.855469 64.613281 Z M 193.855469 64.613281 " fill-opacity="1" fill-rule="nonzero"/><path fill="#000000" d="M 145.597656 78.246094 C 142.476562 80.382812 139.351562 82.9375 137.625 85.484375 C 141.640625 86.371094 149.480469 83.027344 150.761719 74.417969 C 142.035156 72.765625 137.238281 78.375 137.285156 83.351562 C 139.246094 81.375 142.507812 79.273438 145.597656 78.246094 Z M 145.597656 78.246094 " fill-opacity="1" fill-rule="nonzero"/><path fill="#000000" d="M 119.003906 110.84375 C 119.847656 114.5625 121.085938 118.4375 122.832031 121 C 125.148438 117.566406 124.925781 108.976562 117.328125 104.585938 C 112.546875 112.152344 116.027344 118.726562 120.707031 120.527344 C 119.582031 117.957031 118.820312 114.121094 119.003906 110.84375 Z M 119.003906 110.84375 " fill-opacity="1" fill-rule="nonzero"/><path fill="#ffffff" d="M 129.039062 134.320312 C 128.992188 130.828125 129.265625 127.121094 130.269531 124.46875 C 133.066406 127.027344 134.703125 134.710938 128.890625 140.246094 C 123.015625 134.539062 124.703125 127.949219 128.480469 125.34375 C 128.03125 127.871094 128.175781 131.445312 129.039062 134.320312 Z M 129.039062 134.320312 " fill-opacity="1" fill-rule="nonzero"/><path fill="#ffffff" d="M 131.277344 92.75 C 129.714844 97.601562 128.496094 102.894531 128.753906 107.027344 C 133.757812 104.660156 139.351562 94.636719 133.617188 84.414062 C 122.960938 89.855469 122.484375 99.78125 126.636719 105.039062 C 127.097656 101.320312 128.835938 96.386719 131.277344 92.75 Z M 131.277344 92.75 " fill-opacity="1" fill-rule="nonzero"/><path fill="#ffffff" d="M 238.179688 196.234375 C 233.34375 198.632812 227.988281 200.738281 223.621094 201.113281 C 225.316406 195.503906 234.9375 188.070312 246.542969 192.476562 C 242.515625 204.488281 232.195312 206.546875 226.035156 203.023438 C 229.859375 201.953125 234.75 199.363281 238.179688 196.234375 Z M 238.179688 196.234375 " fill-opacity="1" fill-rule="nonzero"/><path fill="#000000" d="M 154.644531 201.445312 C 163.351562 205.542969 172.21875 210.6875 177.582031 216.371094 C 167.871094 220.21875 146.84375 215.011719 140.144531 193.925781 C 161.375 186.25 175.675781 198.386719 177.574219 210.886719 C 171.847656 206.730469 162.8125 202.769531 154.644531 201.445312 Z M 154.644531 201.445312 " fill-opacity="1" fill-rule="nonzero"/><path fill="#ffffff" d="M 154.359375 167.6875 C 159.734375 175.296875 164.742188 183.867188 166.542969 191.21875 C 156.527344 189.816406 141.308594 175.382812 145.746094 154.425781 C 167.285156 158.109375 173.53125 175.160156 169.15625 186.597656 C 166.316406 180.355469 160.601562 172.703125 154.359375 167.6875 Z M 154.359375 167.6875 " fill-opacity="1" fill-rule="nonzero"/><path fill="#ffffff" d="M 162.941406 82.792969 C 168.710938 90.96875 174.09375 100.175781 176.023438 108.074219 C 165.265625 106.566406 148.914062 91.058594 153.683594 68.542969 C 176.828125 72.496094 183.535156 90.820312 178.835938 103.101562 C 175.785156 96.40625 169.648438 88.183594 162.941406 82.792969 Z M 162.941406 82.792969 " fill-opacity="1" fill-rule="nonzero"/><path fill="#ffffff" d="M 127.800781 180.953125 C 131.261719 186.253906 134.453125 192.199219 135.492188 197.242188 C 128.71875 196.039062 118.742188 185.855469 122.277344 171.726562 C 136.824219 174.761719 140.640625 186.503906 137.382812 194.164062 C 135.609375 189.855469 131.917969 184.515625 127.800781 180.953125 Z M 127.800781 180.953125 " fill-opacity="1" fill-rule="nonzero"/><path fill="#000000" d="M 134.925781 149.691406 C 134.242188 157.777344 132.777344 166.304688 129.851562 172.214844 C 123.960938 165.660156 121.90625 147.5 136.617188 136.015625 C 148.921875 150.550781 143.519531 165.425781 134.1875 170.59375 C 135.796875 164.847656 136.28125 156.539062 134.925781 149.691406 Z M 134.925781 149.691406 " fill-opacity="1" fill-rule="nonzero"/><path fill="#ffffff" d="M 201.441406 69.917969 C 201.023438 74.855469 200.128906 80.0625 198.34375 83.675781 C 194.746094 79.671875 193.488281 68.578125 202.476562 61.5625 C 209.988281 70.445312 206.691406 79.53125 200.992188 82.691406 C 201.972656 79.171875 202.265625 74.101562 201.441406 69.917969 Z M 201.441406 69.917969 " fill-opacity="1" fill-rule="nonzero"/><path fill="#000000" d="M 228.464844 79.667969 C 232.878906 85.007812 237.082031 91.074219 238.832031 96.421875 C 231.328125 95.949219 219.222656 86.117188 221.320312 70.328125 C 237.5 71.832031 243.101562 84.117188 240.507812 92.84375 C 238.050781 88.382812 233.378906 83.03125 228.464844 79.667969 Z M 228.464844 79.667969 " fill-opacity="1" fill-rule="nonzero"/><path fill="#ffffff" d="M 115.148438 159.347656 C 118.046875 162.621094 120.824219 166.367188 122.042969 169.703125 C 117.296875 169.566406 109.449219 163.609375 110.441406 153.601562 C 120.6875 154.210938 124.480469 161.851562 123.027344 167.410156 C 121.382812 164.644531 118.320312 161.367188 115.148438 159.347656 Z M 115.148438 159.347656 " fill-opacity="1" fill-rule="nonzero"/><g fill="#ffffff" fill-opacity="1"><g transform="translate(66.363281, 294.833213)"><g><path d="M 0.8125 -23.265625 L 4.046875 -23.265625 L 10.5 -12.40625 L 10.765625 -12.40625 L 17.234375 -23.265625 L 20.453125 -23.265625 L 12.046875 -9.59375 L 12.046875 0 L 9.234375 0 L 9.234375 -9.59375 Z M 0.8125 -23.265625 "/></g></g></g><g fill="#ffffff" fill-opacity="1"><g transform="translate(87.630968, 294.833213)"><g><path d="M 22.453125 -11.640625 C 22.453125 -9.179688 22.007812 -7.054688 21.125 -5.265625 C 20.238281 -3.484375 19.019531 -2.109375 17.46875 -1.140625 C 15.925781 -0.171875 14.164062 0.3125 12.1875 0.3125 C 10.195312 0.3125 8.425781 -0.171875 6.875 -1.140625 C 5.332031 -2.109375 4.117188 -3.484375 3.234375 -5.265625 C 2.347656 -7.054688 1.90625 -9.179688 1.90625 -11.640625 C 1.90625 -14.085938 2.347656 -16.207031 3.234375 -18 C 4.117188 -19.789062 5.332031 -21.171875 6.875 -22.140625 C 8.425781 -23.109375 10.195312 -23.59375 12.1875 -23.59375 C 14.164062 -23.59375 15.925781 -23.109375 17.46875 -22.140625 C 19.019531 -21.171875 20.238281 -19.789062 21.125 -18 C 22.007812 -16.207031 22.453125 -14.085938 22.453125 -11.640625 Z M 19.734375 -11.640625 C 19.734375 -13.648438 19.394531 -15.347656 18.71875 -16.734375 C 18.050781 -18.117188 17.144531 -19.164062 16 -19.875 C 14.863281 -20.59375 13.59375 -20.953125 12.1875 -20.953125 C 10.769531 -20.953125 9.488281 -20.59375 8.34375 -19.875 C 7.207031 -19.164062 6.304688 -18.117188 5.640625 -16.734375 C 4.972656 -15.347656 4.640625 -13.648438 4.640625 -11.640625 C 4.640625 -9.617188 4.972656 -7.914062 5.640625 -6.53125 C 6.304688 -5.144531 7.207031 -4.09375 8.34375 -3.375 C 9.488281 -2.664062 10.769531 -2.3125 12.1875 -2.3125 C 13.59375 -2.3125 14.863281 -2.664062 16 -3.375 C 17.144531 -4.09375 18.050781 -5.144531 18.71875 -6.53125 C 19.394531 -7.914062 19.734375 -9.617188 19.734375 -11.640625 Z M 19.734375 -11.640625 "/></g></g></g><g fill="#ffffff" fill-opacity="1"><g transform="translate(111.988835, 294.833213)"><g><path d="M 18.734375 -16 C 18.234375 -17.53125 17.421875 -18.738281 16.296875 -19.625 C 15.171875 -20.507812 13.769531 -20.953125 12.09375 -20.953125 C 10.707031 -20.953125 9.453125 -20.59375 8.328125 -19.875 C 7.203125 -19.164062 6.304688 -18.117188 5.640625 -16.734375 C 4.972656 -15.347656 4.640625 -13.648438 4.640625 -11.640625 C 4.640625 -9.617188 4.972656 -7.914062 5.640625 -6.53125 C 6.316406 -5.144531 7.226562 -4.09375 8.375 -3.375 C 9.53125 -2.664062 10.828125 -2.3125 12.265625 -2.3125 C 13.578125 -2.3125 14.738281 -2.585938 15.75 -3.140625 C 16.757812 -3.703125 17.550781 -4.492188 18.125 -5.515625 C 18.707031 -6.535156 19.015625 -7.742188 19.046875 -9.140625 L 12.90625 -9.140625 L 12.90625 -11.640625 L 21.765625 -11.640625 L 21.765625 -9.140625 C 21.765625 -7.222656 21.359375 -5.554688 20.546875 -4.140625 C 19.734375 -2.722656 18.613281 -1.625 17.1875 -0.84375 C 15.757812 -0.0703125 14.117188 0.3125 12.265625 0.3125 C 10.210938 0.3125 8.40625 -0.171875 6.84375 -1.140625 C 5.289062 -2.109375 4.078125 -3.484375 3.203125 -5.265625 C 2.335938 -7.054688 1.90625 -9.179688 1.90625 -11.640625 C 1.90625 -14.085938 2.335938 -16.207031 3.203125 -18 C 4.078125 -19.789062 5.28125 -21.171875 6.8125 -22.140625 C 8.34375 -23.109375 10.101562 -23.59375 12.09375 -23.59375 C 13.726562 -23.59375 15.210938 -23.269531 16.546875 -22.625 C 17.878906 -21.988281 18.988281 -21.097656 19.875 -19.953125 C 20.757812 -18.816406 21.347656 -17.5 21.640625 -16 Z M 18.734375 -16 "/></g></g></g><g fill="#ffffff" fill-opacity="1"><g transform="translate(135.755924, 294.833213)"><g><path d="M 3.765625 0 L 0.8125 0 L 9.359375 -23.265625 L 12.265625 -23.265625 L 20.8125 0 L 17.859375 0 L 15.515625 -6.59375 L 6.109375 -6.59375 Z M 7 -9.09375 L 14.640625 -9.09375 L 10.90625 -19.59375 L 10.734375 -19.59375 Z M 7 -9.09375 "/></g></g></g><g fill="#ffffff" fill-opacity="1"><g transform="translate(157.387155, 294.833213)"><g/></g></g><g fill="#ffffff" fill-opacity="1"><g transform="translate(166.385026, 294.833213)"><g><path d="M 15.546875 -17.453125 C 15.410156 -18.609375 14.859375 -19.503906 13.890625 -20.140625 C 12.921875 -20.773438 11.726562 -21.09375 10.3125 -21.09375 C 8.769531 -21.09375 7.53125 -20.722656 6.59375 -19.984375 C 5.65625 -19.253906 5.1875 -18.335938 5.1875 -17.234375 C 5.1875 -16.398438 5.441406 -15.722656 5.953125 -15.203125 C 6.460938 -14.691406 7.066406 -14.296875 7.765625 -14.015625 C 8.460938 -13.734375 9.101562 -13.515625 9.6875 -13.359375 L 12.046875 -12.734375 C 12.648438 -12.566406 13.320312 -12.34375 14.0625 -12.0625 C 14.8125 -11.78125 15.53125 -11.398438 16.21875 -10.921875 C 16.90625 -10.441406 17.472656 -9.828125 17.921875 -9.078125 C 18.367188 -8.328125 18.59375 -7.40625 18.59375 -6.3125 C 18.59375 -5.0625 18.265625 -3.925781 17.609375 -2.90625 C 16.953125 -1.894531 15.992188 -1.085938 14.734375 -0.484375 C 13.484375 0.109375 11.96875 0.40625 10.1875 0.40625 C 7.6875 0.40625 5.695312 -0.179688 4.21875 -1.359375 C 2.75 -2.546875 1.945312 -4.09375 1.8125 -6 L 4.734375 -6 C 4.804688 -5.125 5.097656 -4.398438 5.609375 -3.828125 C 6.128906 -3.253906 6.789062 -2.828125 7.59375 -2.546875 C 8.394531 -2.273438 9.257812 -2.140625 10.1875 -2.140625 C 11.257812 -2.140625 12.222656 -2.3125 13.078125 -2.65625 C 13.929688 -3.007812 14.609375 -3.503906 15.109375 -4.140625 C 15.609375 -4.773438 15.859375 -5.515625 15.859375 -6.359375 C 15.859375 -7.128906 15.640625 -7.757812 15.203125 -8.25 C 14.773438 -8.738281 14.207031 -9.132812 13.5 -9.4375 C 12.800781 -9.738281 12.046875 -10.003906 11.234375 -10.234375 L 8.359375 -11.046875 C 6.546875 -11.566406 5.109375 -12.3125 4.046875 -13.28125 C 2.984375 -14.25 2.453125 -15.519531 2.453125 -17.09375 C 2.453125 -18.394531 2.804688 -19.53125 3.515625 -20.5 C 4.222656 -21.476562 5.175781 -22.238281 6.375 -22.78125 C 7.582031 -23.320312 8.925781 -23.59375 10.40625 -23.59375 C 11.90625 -23.59375 13.238281 -23.320312 14.40625 -22.78125 C 15.570312 -22.25 16.5 -21.519531 17.1875 -20.59375 C 17.875 -19.675781 18.234375 -18.628906 18.265625 -17.453125 Z M 15.546875 -17.453125 "/></g></g></g><g fill="#ffffff" fill-opacity="1"><g transform="translate(186.789279, 294.833213)"><g><path d="M 2.8125 0 L 2.8125 -23.265625 L 16.859375 -23.265625 L 16.859375 -20.765625 L 5.640625 -20.765625 L 5.640625 -12.90625 L 16.140625 -12.90625 L 16.140625 -10.40625 L 5.640625 -10.40625 L 5.640625 -2.5 L 17.046875 -2.5 L 17.046875 0 Z M 2.8125 0 "/></g></g></g><g fill="#ffffff" fill-opacity="1"><g transform="translate(205.92111, 294.833213)"><g><path d="M 21.265625 -23.265625 L 21.265625 0 L 18.546875 0 L 5.859375 -18.265625 L 5.640625 -18.265625 L 5.640625 0 L 2.8125 0 L 2.8125 -23.265625 L 5.546875 -23.265625 L 18.265625 -4.953125 L 18.5 -4.953125 L 18.5 -23.265625 Z M 21.265625 -23.265625 "/></g></g></g><g fill="#ffffff" fill-opacity="1"><g transform="translate(230.00631, 294.833213)"><g><path d="M 15.546875 -17.453125 C 15.410156 -18.609375 14.859375 -19.503906 13.890625 -20.140625 C 12.921875 -20.773438 11.726562 -21.09375 10.3125 -21.09375 C 8.769531 -21.09375 7.53125 -20.722656 6.59375 -19.984375 C 5.65625 -19.253906 5.1875 -18.335938 5.1875 -17.234375 C 5.1875 -16.398438 5.441406 -15.722656 5.953125 -15.203125 C 6.460938 -14.691406 7.066406 -14.296875 7.765625 -14.015625 C 8.460938 -13.734375 9.101562 -13.515625 9.6875 -13.359375 L 12.046875 -12.734375 C 12.648438 -12.566406 13.320312 -12.34375 14.0625 -12.0625 C 14.8125 -11.78125 15.53125 -11.398438 16.21875 -10.921875 C 16.90625 -10.441406 17.472656 -9.828125 17.921875 -9.078125 C 18.367188 -8.328125 18.59375 -7.40625 18.59375 -6.3125 C 18.59375 -5.0625 18.265625 -3.925781 17.609375 -2.90625 C 16.953125 -1.894531 15.992188 -1.085938 14.734375 -0.484375 C 13.484375 0.109375 11.96875 0.40625 10.1875 0.40625 C 7.6875 0.40625 5.695312 -0.179688 4.21875 -1.359375 C 2.75 -2.546875 1.945312 -4.09375 1.8125 -6 L 4.734375 -6 C 4.804688 -5.125 5.097656 -4.398438 5.609375 -3.828125 C 6.128906 -3.253906 6.789062 -2.828125 7.59375 -2.546875 C 8.394531 -2.273438 9.257812 -2.140625 10.1875 -2.140625 C 11.257812 -2.140625 12.222656 -2.3125 13.078125 -2.65625 C 13.929688 -3.007812 14.609375 -3.503906 15.109375 -4.140625 C 15.609375 -4.773438 15.859375 -5.515625 15.859375 -6.359375 C 15.859375 -7.128906 15.640625 -7.757812 15.203125 -8.25 C 14.773438 -8.738281 14.207031 -9.132812 13.5 -9.4375 C 12.800781 -9.738281 12.046875 -10.003906 11.234375 -10.234375 L 8.359375 -11.046875 C 6.546875 -11.566406 5.109375 -12.3125 4.046875 -13.28125 C 2.984375 -14.25 2.453125 -15.519531 2.453125 -17.09375 C 2.453125 -18.394531 2.804688 -19.53125 3.515625 -20.5 C 4.222656 -21.476562 5.175781 -22.238281 6.375 -22.78125 C 7.582031 -23.320312 8.925781 -23.59375 10.40625 -23.59375 C 11.90625 -23.59375 13.238281 -23.320312 14.40625 -22.78125 C 15.570312 -22.25 16.5 -21.519531 17.1875 -20.59375 C 17.875 -19.675781 18.234375 -18.628906 18.265625 -17.453125 Z M 15.546875 -17.453125 "/></g></g></g><g fill="#ffffff" fill-opacity="1"><g transform="translate(250.410563, 294.833213)"><g><path d="M 2.8125 0 L 2.8125 -23.265625 L 16.859375 -23.265625 L 16.859375 -20.765625 L 5.640625 -20.765625 L 5.640625 -12.90625 L 16.140625 -12.90625 L 16.140625 -10.40625 L 5.640625 -10.40625 L 5.640625 -2.5 L 17.046875 -2.5 L 17.046875 0 Z M 2.8125 0 "/></g></g></g><g fill="#ffffff" fill-opacity="1"><g transform="translate(269.542406, 294.833213)"><g/></g></g><g fill="#ffffff" fill-opacity="1"><g transform="translate(278.540277, 294.833213)"><g><path d="M 3.765625 0 L 0.8125 0 L 9.359375 -23.265625 L 12.265625 -23.265625 L 20.8125 0 L 17.859375 0 L 15.515625 -6.59375 L 6.109375 -6.59375 Z M 7 -9.09375 L 14.640625 -9.09375 L 10.90625 -19.59375 L 10.734375 -19.59375 Z M 7 -9.09375 "/></g></g></g><g fill="#ffffff" fill-opacity="1"><g transform="translate(300.171508, 294.833213)"><g><path d="M 5.640625 -23.265625 L 5.640625 0 L 2.8125 0 L 2.8125 -23.265625 Z M 5.640625 -23.265625 "/></g></g></g></svg>